<svg width="24" height="24" viewBox="0 0 24 24" fill="none" xmlns="http://www.w3.org/2000/svg">
<path fill-rule="evenodd" clip-rule="evenodd" d="M17.193 9.08708C16.5388 9.08708 15.9154 9.21687 15.3469 9.45106C15.8807 8.68491 16.194 7.75675 16.194 6.75577C16.194 4.12925 14.0417 2 11.3869 2C8.73204 2 6.57984 4.12925 6.57984 6.75577C6.57984 7.70879 6.86428 8.59552 7.3521 9.33958C6.86707 9.17674 6.3477 9.08708 5.80702 9.08708C3.1521 9.08708 1 11.2163 1 13.8429C1 16.4694 3.1521 18.5986 5.80702 18.5986C6.40659 18.5986 6.98012 18.4891 7.50944 18.2906C7.50935 18.2917 9.74659 17.694 11.2172 15.0458V16.6403C11.2172 16.6403 10.4632 21.6665 5.14724 22.2167H4.29887V23H18.7765V22.2167H17.9282C12.6122 21.6665 11.8581 16.6403 11.8581 16.6403V15.1531C12.132 15.7499 13.6465 18.6678 17.0502 18.5953C17.0977 18.5964 17.1451 18.5986 17.193 18.5986C19.8479 18.5986 22 16.4694 22 13.8429C22 11.2163 19.8479 9.08708 17.193 9.08708Z" fill="#1A1919"/>
</svg>
