<svg width="48" height="48" viewBox="0 0 48 48" fill="none" xmlns="http://www.w3.org/2000/svg">
<path fill-rule="evenodd" clip-rule="evenodd" d="M34.386 18.1742C33.0776 18.1742 31.8308 18.4337 30.6938 18.9021C31.7614 17.3698 32.3879 15.5135 32.3879 13.5115C32.3879 8.25851 28.0834 4 22.7737 4C17.4641 4 13.1597 8.25851 13.1597 13.5115C13.1597 15.4176 13.7286 17.191 14.7042 18.6792C13.7341 18.3535 12.6954 18.1742 11.614 18.1742C6.30421 18.1742 2 22.4327 2 27.6857C2 32.9387 6.30421 37.1973 11.614 37.1973C12.8132 37.1973 13.9602 36.9782 15.0189 36.5812C15.0187 36.5835 19.4932 35.3881 22.4345 30.0916V33.2806C22.4345 33.2806 20.9264 43.3331 10.2945 44.4335H8.59774V46H37.553V44.4335H35.8564C25.2245 43.3331 23.7163 33.2806 23.7163 33.2806V30.3062C24.2641 31.4998 27.293 37.3355 34.1003 37.1906C34.1954 37.1928 34.2901 37.1973 34.386 37.1973C39.6958 37.1973 44 32.9387 44 27.6857C44 22.4327 39.6958 18.1742 34.386 18.1742Z" fill="#1A1919"/>
</svg>
