<svg width="49" height="41" viewBox="0 0 49 41" fill="none" xmlns="http://www.w3.org/2000/svg">
<path fill-rule="evenodd" clip-rule="evenodd" d="M10.4978 0.358407C11.5208 0.0109736 12.0309 -0.0469252 13.4206 0.0302823C15.7753 0.16156 17.5568 1.01065 19.3904 2.87892C20.1181 3.61818 20.7126 4.17803 20.7126 4.12013C20.7126 4.06404 20.5392 3.6776 20.3269 3.26075C20.1147 2.84404 19.9412 2.45843 19.9412 2.4004C19.9412 2.22861 21.1089 2.29603 22.5681 2.55274L23.9402 2.79395L24.6814 2.15333C26.212 0.831215 28.4974 0.636185 30.5183 1.65724C32.626 2.72467 33.9927 5.0796 34.3826 8.31837L34.5369 9.59181L33.8494 9.70606C32.5778 9.91638 32.5509 9.89904 32.4255 8.84376C32.163 6.62598 30.7768 4.80568 29.3523 4.80567C28.8138 4.80567 28.5413 4.94654 28.0915 5.45997C27.451 6.1896 26.9994 7.7293 27.1189 8.76759C27.1903 9.37367 27.1517 9.43962 26.7058 9.45313C26.2505 9.46857 26.2642 9.49159 26.8894 9.76368C28.2116 10.3389 30.1325 10.6017 34.321 10.7793C37.5109 10.9144 38.9431 11.0573 40.0798 11.3525C43.9441 12.3601 46.2988 14.4084 47.3894 17.7149C48.283 20.423 48.285 26.5486 47.3933 27.7627C46.9378 28.3823 45.2224 28.9617 41.9548 29.5986C37.7413 30.4209 36.0848 30.5654 30.9431 30.5654C26.662 30.5635 25.7274 30.5073 23.7644 30.1348C18.6882 29.1678 15.7641 27.8266 13.1121 25.2442C12.169 24.3262 11.4512 23.4892 11.5154 23.3818C11.581 23.2776 12.0269 23.0904 12.5056 22.9707C13.4861 22.7236 13.6151 22.4508 12.8816 22.1729C11.0114 21.4611 8.69574 22.9569 8.41381 25.0586C8.27677 26.0855 8.52159 26.0601 9.4558 24.9541L10.2068 24.0645L10.7624 24.8662C12.0866 26.7751 15.2926 29.1742 17.6589 30.0254C18.3731 30.2821 18.6297 30.483 18.7205 30.8555C18.7842 31.1258 19.0012 31.6718 19.1999 32.0693C19.752 33.1693 20.5104 33.0514 21.4851 31.7119C21.7455 31.3551 21.8769 31.332 22.7663 31.4863C23.7044 31.6485 23.7738 31.7008 24.0749 32.4922C24.4494 33.4687 24.9822 34.0125 25.4744 33.918C25.6674 33.8794 26.1292 33.4354 26.5017 32.9297C27.1673 32.0249 27.1966 32.0094 28.1326 32.0635C29.082 32.1175 29.0875 32.1216 29.6453 33.2197C30.5215 34.9452 31.132 34.9318 32.2263 33.1582L32.9265 32.0215H34.0349C35.0868 32.0215 35.1549 32.0497 35.3865 32.6074C35.9771 34.0357 36.8934 34.5418 37.5574 33.8066C37.7253 33.6213 38.0404 33.0555 38.2566 32.5518C38.4728 32.0481 38.7621 31.6308 38.8972 31.627C39.0345 31.6211 39.5151 31.5458 39.9646 31.459C40.7789 31.3027 40.783 31.3049 41.2673 32.1309C42.1205 33.5881 42.8383 33.4917 43.6296 31.8125C44.0504 30.9188 44.2864 30.645 44.7439 30.5156C45.2588 30.371 45.3285 30.4016 45.3826 30.7949C45.481 31.5052 44.8924 33.5481 44.157 35.0518C42.9564 37.5088 40.6571 39.3863 37.7947 40.249C36.2041 40.7296 31.7978 40.7167 28.0476 40.2188C25.1851 39.8404 21.4692 39.7688 14.0535 39.9502C11.0215 40.0255 10.676 39.998 9.50072 39.5908C6.26187 38.4713 3.35891 35.5663 1.78002 31.8623C1.76522 31.8161 -0.371505 25.1395 0.0573654 20.7158C0.487777 16.2768 3.98412 9.12891 3.98412 9.12891L4.30834 7.74513C5.16145 4.11461 7.43866 1.39502 10.4978 0.358407ZM35.7644 16.9639C34.2956 15.9178 32.5004 16.8999 33.2663 18.3301C33.3783 18.5385 33.668 18.703 33.9285 18.7031C35.0692 18.7031 36.1237 19.4496 36.7742 20.7158C37.1081 21.3662 37.1892 21.4263 37.3494 21.1406C37.4516 20.9553 37.4744 20.4419 37.4011 19.9961C37.21 18.8477 36.4592 17.4581 35.7644 16.9639ZM45.116 16.3037C44.6836 15.8714 44.3458 15.927 43.8884 16.5078C43.4368 17.083 43.3516 18.4884 43.6931 19.7217C43.9556 20.6655 44.2614 20.465 44.2615 19.3477C44.2615 18.624 44.3611 18.3783 44.8396 17.9307C45.4804 17.3323 45.5772 16.765 45.116 16.3037ZM16.6365 9.34278C14.0076 6.35118 10.2163 8.48467 9.9519 13.1055C9.89981 14.0318 9.96563 14.8311 10.1335 15.3252C10.3805 16.0429 10.4446 16.0932 11.0583 16.043C11.4211 16.014 11.7374 15.9675 11.7644 15.9424C11.7892 15.9165 11.6714 15.4788 11.5056 14.9697C10.8629 13.0203 12.0442 10.5959 13.6365 10.5957C14.4181 10.5957 14.6635 10.8294 14.2449 11.1768C13.8685 11.4895 13.8764 12.4177 14.2605 12.8018C14.6485 13.1897 15.3815 13.1917 15.7019 12.8057C15.8987 12.5684 15.9818 12.5591 16.1091 12.7578C16.3697 13.1689 16.2949 14.8038 15.9822 15.5547C15.82 15.9388 15.712 16.2708 15.741 16.294C15.9001 16.4236 16.9689 16.9516 17.0876 16.958C17.1648 16.9619 17.3561 16.7181 17.5124 16.417C17.6668 16.1157 17.8948 15.296 18.0183 14.5938C18.3599 12.6269 17.8641 10.7422 16.6365 9.34278ZM28.5945 6.9463C29.1407 6.65495 29.7749 6.82248 29.4314 7.16602C28.8547 7.74322 29.6137 8.87435 30.324 8.49415C30.8062 8.23574 30.9431 8.38597 30.9431 9.18067V9.82423L29.7371 9.79688C29.0733 9.78338 28.336 9.73284 28.0964 9.68653C27.7181 9.61512 27.6619 9.48579 27.6677 8.7002C27.6755 7.72761 27.89 7.32072 28.5945 6.9463ZM13.4265 3.06837C11.7589 3.06837 10.1452 3.94841 9.23803 5.35157C8.77478 6.07153 8.40803 7.31446 8.66088 7.31446C8.7368 7.31378 9.18253 6.96125 9.65112 6.52931C10.8806 5.39629 12.2511 4.80956 13.6775 4.80763C14.8798 4.80567 15.3083 4.59453 15.3083 4.00587C15.308 3.45023 14.5398 3.06842 13.4265 3.06837Z" fill="#55FF60"/>
</svg>
