<svg width="36" height="36" viewBox="0 0 36 36" fill="none" xmlns="http://www.w3.org/2000/svg">
<g filter="url(#filter0_ii_55_962)">
<rect width="36" height="36" rx="18" fill="#1E1E1E"/>
<path d="M17.1719 18.9672C17.9427 18.9672 18.6819 19.2737 19.2269 19.8192C19.7719 20.3648 20.0781 21.1047 20.0781 21.8763C20.0781 23.2799 19.2179 24.3926 18.0278 25.1199C16.8377 25.8443 15.2465 26.2399 13.5391 26.2399C11.8316 26.2399 10.2405 25.8443 9.05036 25.1199C7.8588 24.3926 7 23.2799 7 21.8763C7 21.1047 7.30619 20.3648 7.85122 19.8192C8.39625 19.2737 9.13546 18.9672 9.90625 18.9672H17.1719ZM26.8395 18.9788C27.3763 19.0339 27.8735 19.2863 28.2351 19.6872C28.5966 20.0881 28.7968 20.6089 28.7969 21.149C28.7969 22.2705 28.1139 23.1985 27.1955 23.8108C26.2728 24.4275 25.0376 24.7854 23.7109 24.7854C22.6938 24.7854 21.7347 24.573 20.9253 24.1992C21.3002 23.5257 21.5298 22.7505 21.5298 21.8763C21.5298 20.7723 21.1171 19.7672 20.4414 18.9977C20.5596 18.9783 20.6807 18.9681 20.8047 18.9672H26.6172L26.8395 18.9788ZM13.5391 9.51263C14.5989 9.51263 15.6153 9.93406 16.3647 10.6842C17.1141 11.4344 17.5352 12.4518 17.5352 13.5126C17.5352 14.5735 17.1141 15.5909 16.3647 16.3411C15.6153 17.0912 14.5989 17.5126 13.5391 17.5126C12.4792 17.5126 11.4628 17.0912 10.7134 16.3411C9.96398 15.5909 9.54297 14.5735 9.54297 13.5126C9.54297 12.4518 9.96398 11.4344 10.7134 10.6842C11.4628 9.93406 12.4792 9.51263 13.5391 9.51263ZM23.7138 10.9628C24.1493 10.9536 24.5822 11.0315 24.9872 11.192C25.3921 11.3525 25.761 11.5922 26.0723 11.8972C26.3835 12.2022 26.6307 12.5664 26.7995 12.9683C26.9683 13.3702 27.0552 13.8018 27.0552 14.2377C27.0552 14.6737 26.9683 15.1053 26.7995 15.5072C26.6307 15.9091 26.3835 16.2732 26.0723 16.5782C25.761 16.8832 25.3921 17.123 24.9872 17.2835C24.5822 17.4439 24.1493 17.5218 23.7138 17.5126C22.8581 17.4946 22.0434 17.1416 21.4446 16.5294C20.8457 15.9172 20.5104 15.0945 20.5104 14.2377C20.5104 13.3809 20.8457 12.5582 21.4446 11.946C22.0434 11.3338 22.8581 10.9809 23.7138 10.9628Z" fill="#828282"/>
</g>
<defs>
<filter id="filter0_ii_55_962" x="0" y="0" width="36" height="36" filterUnits="userSpaceOnUse" color-interpolation-filters="sRGB">
<feFlood flood-opacity="0" result="BackgroundImageFix"/>
<feBlend mode="normal" in="SourceGraphic" in2="BackgroundImageFix" result="shape"/>
<feColorMatrix in="SourceAlpha" type="matrix" values="0 0 0 0 0 0 0 0 0 0 0 0 0 0 0 0 0 0 127 0" result="hardAlpha"/>
<feOffset dy="1"/>
<feComposite in2="hardAlpha" operator="arithmetic" k2="-1" k3="1"/>
<feColorMatrix type="matrix" values="0 0 0 0 0.144231 0 0 0 0 0.144231 0 0 0 0 0.144231 0 0 0 1 0"/>
<feBlend mode="normal" in2="shape" result="effect1_innerShadow_55_962"/>
<feColorMatrix in="SourceAlpha" type="matrix" values="0 0 0 0 0 0 0 0 0 0 0 0 0 0 0 0 0 0 127 0" result="hardAlpha"/>
<feOffset dy="-1"/>
<feComposite in2="hardAlpha" operator="arithmetic" k2="-1" k3="1"/>
<feColorMatrix type="matrix" values="0 0 0 0 0.139423 0 0 0 0 0.139423 0 0 0 0 0.139423 0 0 0 1 0"/>
<feBlend mode="normal" in2="effect1_innerShadow_55_962" result="effect2_innerShadow_55_962"/>
</filter>
</defs>
</svg>
