<svg width="55" height="48" viewBox="0 0 55 48" fill="none" xmlns="http://www.w3.org/2000/svg">
<g filter="url(#filter0_ii_55_2964)">
<path d="M0.156937 15.6531L26.1156 47.8717L15.7054 15.6531H0.156937ZM18.5264 15.6531L27.7198 47.9376L35.6306 15.6531H18.5264ZM29.1187 47.8717L54.1086 15.6531H38.6803L29.1187 47.8717ZM54.1667 13.5451L46.6744 0.734313L39.1782 13.5451H54.1667ZM44.3184 0H29.3299L36.8222 13.2506L44.3184 0ZM34.5185 13.5451L27.0262 0.734313L19.5319 13.5451H34.5185ZM24.8329 0H9.84638L17.3406 13.2506L24.8329 0ZM7.49231 0.734313L0 13.5451H14.9866L7.49231 0.734313Z" fill="black"/>
<path d="M0.156937 15.6531L26.1156 47.8717L15.7054 15.6531H0.156937ZM18.5264 15.6531L27.7198 47.9376L35.6306 15.6531H18.5264ZM29.1187 47.8717L54.1086 15.6531H38.6803L29.1187 47.8717ZM54.1667 13.5451L46.6744 0.734313L39.1782 13.5451H54.1667ZM44.3184 0H29.3299L36.8222 13.2506L44.3184 0ZM34.5185 13.5451L27.0262 0.734313L19.5319 13.5451H34.5185ZM24.8329 0H9.84638L17.3406 13.2506L24.8329 0ZM7.49231 0.734313L0 13.5451H14.9866L7.49231 0.734313Z" fill="url(#paint0_linear_55_2964)"/>
</g>
<defs>
<filter id="filter0_ii_55_2964" x="0" y="0" width="54.1667" height="49.9376" filterUnits="userSpaceOnUse" color-interpolation-filters="sRGB">
<feFlood flood-opacity="0" result="BackgroundImageFix"/>
<feBlend mode="normal" in="SourceGraphic" in2="BackgroundImageFix" result="shape"/>
<feColorMatrix in="SourceAlpha" type="matrix" values="0 0 0 0 0 0 0 0 0 0 0 0 0 0 0 0 0 0 127 0" result="hardAlpha"/>
<feOffset dy="2"/>
<feGaussianBlur stdDeviation="1.25"/>
<feComposite in2="hardAlpha" operator="arithmetic" k2="-1" k3="1"/>
<feColorMatrix type="matrix" values="0 0 0 0 0 0 0 0 0 0 0 0 0 0 0 0 0 0 0.25 0"/>
<feBlend mode="normal" in2="shape" result="effect1_innerShadow_55_2964"/>
<feColorMatrix in="SourceAlpha" type="matrix" values="0 0 0 0 0 0 0 0 0 0 0 0 0 0 0 0 0 0 127 0" result="hardAlpha"/>
<feOffset dy="-1"/>
<feComposite in2="hardAlpha" operator="arithmetic" k2="-1" k3="1"/>
<feColorMatrix type="matrix" values="0 0 0 0 0.313726 0 0 0 0 0.913725 0 0 0 0 0.352941 0 0 0 1 0"/>
<feBlend mode="normal" in2="effect1_innerShadow_55_2964" result="effect2_innerShadow_55_2964"/>
</filter>
<linearGradient id="paint0_linear_55_2964" x1="27.0833" y1="0" x2="27.0833" y2="47.9376" gradientUnits="userSpaceOnUse">
<stop stop-color="#40A646"/>
<stop offset="1" stop-color="#38863D"/>
</linearGradient>
</defs>
</svg>
