<svg width="42" height="42" viewBox="0 0 42 42" fill="none" xmlns="http://www.w3.org/2000/svg">
<path d="M34.3333 17H7.6666V14.3333C7.6666 13.2725 8.08802 12.2551 8.83817 11.5049C9.58831 10.7548 10.6057 10.3333 11.6666 10.3333H30.3333C31.3941 10.3333 32.4115 10.7548 33.1617 11.5049C33.9118 12.2551 34.3333 13.2725 34.3333 14.3333V17ZM34.3333 19.6667V27.6667C34.3333 28.7275 33.9118 29.745 33.1617 30.4951C32.4115 31.2453 31.3941 31.6667 30.3333 31.6667H11.6666C10.6057 31.6667 9.58831 31.2453 8.83817 30.4951C8.08802 29.745 7.6666 28.7275 7.6666 27.6667V19.6667H15.8346C16.1312 20.811 16.7994 21.8244 17.7342 22.5479C18.6691 23.2714 19.8178 23.6639 20.9999 23.6639C22.1821 23.6639 23.3307 23.2714 24.2656 22.5479C25.2005 21.8244 25.8687 20.811 26.1653 19.6667H34.3333Z" fill="#828282"/>
</svg>
