<svg width="42" height="42" viewBox="0 0 42 42" fill="none" xmlns="http://www.w3.org/2000/svg">
<path d="M33 22.0909V19.9091H29.6509C29.4535 18.3582 28.8432 16.8888 27.8836 15.6545L30.2727 13.2873L28.7127 11.7273L26.3455 14.1164C25.1112 13.1568 23.6418 12.5465 22.0909 12.3491V9H19.9091V12.3491C18.36 12.5455 16.8873 13.1564 15.6545 14.1164L13.2873 11.7273L11.7273 13.2873L14.1164 15.6545C13.1568 16.8888 12.5465 18.3582 12.3491 19.9091H9V22.0909H12.3491C12.5455 23.64 13.1564 25.1127 14.1164 26.3455L11.7273 28.7127L13.2873 30.2727L15.6545 27.8836C16.8873 28.8436 18.36 29.4545 19.9091 29.6509V33H22.0909V29.6509C23.64 29.4545 25.1127 28.8436 26.3455 27.8836L28.7127 30.2727L30.2727 28.7127L27.8836 26.3455C28.8432 25.1112 29.4535 23.6418 29.6509 22.0909H33ZM21 16.6364C19.8427 16.6364 18.7328 17.0961 17.9144 17.9144C17.0961 18.7328 16.6364 19.8427 16.6364 21H14.4545C14.4545 19.264 15.1442 17.5992 16.3717 16.3717C17.5992 15.1442 19.264 14.4545 21 14.4545V16.6364Z" fill="#828282"/>
</svg>
