<svg width="70" height="48" viewBox="0 0 70 48" fill="none" xmlns="http://www.w3.org/2000/svg">
<rect width="70" height="48" rx="6" fill="#333232"/>
<rect width="70" height="48" rx="6" fill="url(#paint0_linear_2044_2197)"/>
<path d="M62.9867 21.1459L62.9999 21.1313H60.9076L59.5863 25.7115H59.5162L57.9992 21.1313H55.5127L58.5044 28.69L57.2546 30.9939V31.0495H59.2067L62.9867 21.1459Z" fill="#333232"/>
<path d="M39.7911 21.1313H37.5718V28.6622H39.7911V21.1313Z" fill="#333232"/>
<path d="M55.0763 26.7788V23.6323C55.0763 21.9182 54.0645 20.9766 52.2803 20.9766C51.1416 20.9766 50.3559 21.1736 48.9223 21.6088L49.3151 23.3374C50.6218 22.7475 51.1971 22.4949 51.8015 22.4949C52.5316 22.4949 52.8557 23.0147 52.8557 23.8162V23.8717C50.3123 24.3492 49.5254 24.6163 49.0347 25.1083C48.6696 25.4734 48.5149 25.9932 48.5149 26.5976C48.5149 28.0445 49.6391 28.8169 50.6919 28.8169C51.4788 28.8169 52.111 28.522 52.9681 27.8752L53.1228 28.6622H55.3421L55.0763 26.7788ZM52.857 26.8357C52.2671 27.1584 51.9298 27.2853 51.537 27.2853C51.0027 27.2853 50.6654 26.9335 50.6654 26.3727C50.6654 26.1625 50.7078 25.9508 50.8757 25.7829C51.1429 25.5157 51.6627 25.3186 52.857 25.0383V26.8357Z" fill="#333232"/>
<path d="M45.313 20.9766C44.4983 20.9766 43.8661 21.286 43.1492 21.8759V21.1313H40.9299V31.0494H43.1492V28.5907C43.5712 28.7032 43.964 28.76 44.4414 28.76C46.4227 28.76 48.2069 27.2986 48.2069 24.6997C48.2069 22.3679 46.9147 20.9766 45.313 20.9766ZM43.9071 27.3687C43.6545 27.3687 43.4151 27.3409 43.1479 27.2562V23.1827C43.6122 22.8599 43.9904 22.7052 44.4679 22.7052C45.2971 22.7052 45.9571 23.3652 45.9571 24.7711C45.9584 26.5685 44.989 27.3687 43.9071 27.3687Z" fill="#333232"/>
<path d="M18.7592 17.2522H9.24312C8.00385 17.2522 7 18.2653 7 19.5138V29.1106C7 30.3591 8.00385 31.3722 9.24312 31.3722H18.7592C19.9985 31.3722 21.001 30.3591 21.001 29.1106V19.5138C21.0023 18.264 19.9985 17.2522 18.7592 17.2522Z" fill="#333232"/>
<path d="M18.5278 26.119C17.9684 25.9299 17.2158 25.6402 16.3786 25.3347C16.8812 24.4525 17.2833 23.4487 17.5478 22.3575H14.7875V21.355H18.1681V20.7955H14.7875V19.1238H13.4081C13.166 19.1238 13.166 19.3645 13.166 19.3645V20.7942H9.74712V21.3537H13.166V22.3562H10.3423V22.9157H15.8178C15.6181 23.6113 15.3483 24.266 15.0296 24.8599C13.2533 24.2687 11.3567 23.7899 10.1664 24.0848C9.40457 24.274 8.91388 24.6112 8.62556 24.9657C7.30296 26.5885 8.25126 29.0538 11.0446 29.0538C12.6965 29.0538 14.2876 28.1254 15.5202 26.5951C17.36 27.4866 21.0011 29.0181 21.0011 29.0181V26.8358C21.0024 26.8358 20.5448 26.7988 18.5278 26.119ZM10.784 28.1108C8.60572 28.1108 7.96162 26.3809 9.03821 25.4339C9.39795 25.1138 10.054 24.9577 10.4031 24.9234C11.6966 24.7951 12.8949 25.2924 14.3088 25.9881C13.3155 27.2948 12.0498 28.1108 10.784 28.1108Z" fill="#333232"/>
<path d="M18.5278 26.119C17.9684 25.9299 17.2158 25.6402 16.3786 25.3347C16.8812 24.4525 17.2833 23.4487 17.5478 22.3575H14.7875V21.355H18.1681V20.7955H14.7875V19.1238H13.4081C13.166 19.1238 13.166 19.3645 13.166 19.3645V20.7942H9.74712V21.3537H13.166V22.3562H10.3423V22.9157H15.8178C15.6181 23.6113 15.3483 24.266 15.0296 24.8599C13.2533 24.2687 11.3567 23.7899 10.1664 24.0848C9.40457 24.274 8.91388 24.6112 8.62556 24.9657C7.30296 26.5885 8.25126 29.0538 11.0446 29.0538C12.6965 29.0538 14.2876 28.1254 15.5202 26.5951C17.36 27.4866 21.0011 29.0181 21.0011 29.0181V26.8358C21.0024 26.8358 20.5448 26.7988 18.5278 26.119ZM10.784 28.1108C8.60572 28.1108 7.96162 26.3809 9.03821 25.4339C9.39795 25.1138 10.054 24.9577 10.4031 24.9234C11.6966 24.7951 12.8949 25.2924 14.3088 25.9881C13.3155 27.2948 12.0498 28.1108 10.784 28.1108Z" fill="url(#paint1_linear_2044_2197)"/>
<path d="M29.943 18.7573H26.9645L23.6355 28.6622H25.6868L26.2489 26.7233H29.775L30.3093 28.6622H32.936L29.943 18.7573ZM26.7119 25.1071L28.0318 20.5415H28.0874L29.3372 25.1071H26.7119Z" fill="#333232"/>
<path d="M36.0535 18.4055H33.8342V28.6609H36.0535V18.4055Z" fill="#333232"/>
<path d="M37.4026 19.3195C37.4026 20.0496 37.9369 20.5416 38.6815 20.5416C39.4262 20.5416 39.9605 20.0496 39.9605 19.3195C39.9605 18.6026 39.4262 18.0974 38.6815 18.0974C37.9369 18.0974 37.4026 18.6026 37.4026 19.3195Z" fill="#333232"/>
<defs>
<linearGradient id="paint0_linear_2044_2197" x1="35" y1="48" x2="35" y2="0" gradientUnits="userSpaceOnUse">
<stop stop-color="#161616"/>
<stop offset="1" stop-color="#0D0D0D"/>
</linearGradient>
<linearGradient id="paint1_linear_2044_2197" x1="14.519" y1="29.0538" x2="14.519" y2="19.1238" gradientUnits="userSpaceOnUse">
<stop stop-color="#161616"/>
<stop offset="1" stop-color="#0D0D0D"/>
</linearGradient>
</defs>
</svg>
