<svg width="32" height="32" viewBox="0 0 32 32" fill="none" xmlns="http://www.w3.org/2000/svg">
<path fill-rule="evenodd" clip-rule="evenodd" d="M19.7357 26.4423C20.5575 26.3599 21.1129 27.2323 20.7246 27.9385C20.451 28.4361 20.0654 28.8705 19.6035 29.2263C19.1325 29.5891 18.5859 29.8675 17.9997 30.0544C17.4131 30.2416 16.7903 30.3363 16.1653 30.3363C15.5402 30.3363 14.9174 30.2416 14.3309 30.0544C13.7446 29.8675 13.1981 29.5891 12.7271 29.2263C12.2651 28.8705 11.8795 28.4361 11.606 27.9385C11.2177 27.2323 11.773 26.3599 12.5949 26.4423C12.8513 26.468 14.8574 26.6641 16.1653 26.6641C17.4731 26.6641 19.4793 26.468 19.7357 26.4423Z" fill="#828282"/>
<path fill-rule="evenodd" clip-rule="evenodd" d="M11.3719 2.7834C14.3908 1.33927 17.9285 1.29014 20.9896 2.64983L21.2632 2.77135C24.4708 4.19609 26.5244 7.28293 26.5244 10.6795V12.364C26.5244 13.718 26.8313 15.0557 27.424 16.284L27.7778 17.0176C29.4032 20.3867 27.2865 24.3247 23.4873 24.9997L23.2732 25.0377C18.5732 25.8728 13.7537 25.8728 9.05376 25.0377C5.20349 24.3537 3.16653 20.2591 5.02969 16.9487L5.33241 16.4109C6.07966 15.0832 6.47097 13.5975 6.47097 12.0879V10.3898C6.47097 7.16587 8.36923 4.21971 11.3719 2.7834Z" fill="#828282"/>
<circle cx="25" cy="5.51263" r="4" fill="#F34950"/>
</svg>
