<svg width="70" height="48" viewBox="0 0 70 48" fill="none" xmlns="http://www.w3.org/2000/svg">
<rect width="70" height="48" rx="6" fill="#333232"/>
<rect width="70" height="48" rx="6" fill="url(#paint0_linear_55_2557)"/>
<path d="M35.1251 8C44.0325 8 51.2539 15.2211 51.254 24.1289C51.254 33.0368 44.0326 40.2588 35.1251 40.2588C26.2179 40.2585 18.9972 33.0367 18.9972 24.1289C18.9973 15.2213 26.218 8.00024 35.1251 8ZM34.0275 16.9004L30.4435 16.0166L29.9708 17.9072C29.9943 17.9126 31.281 18.206 31.2618 18.2266C31.981 18.4061 32.1121 18.8799 32.09 19.2559L30.0948 27.2236C30.0067 27.4404 29.7832 27.7673 29.2804 27.6436C29.2862 27.665 28.0094 27.3288 27.9884 27.3232L27.1056 29.3496L30.6847 30.249L29.9493 33.1914L31.7238 33.6328L32.4532 30.7227C32.938 30.8527 33.4088 30.975 33.8693 31.0889L33.1437 33.9844L34.92 34.4268L35.6564 31.4912C38.6874 32.0619 40.9661 31.8312 41.9249 29.1006C42.4298 27.2031 41.8865 25.6336 40.2921 24.8066C41.4543 24.5404 42.3297 23.78 42.5636 22.208C42.8855 20.0611 41.2435 18.9072 39.0001 18.1367L39.7286 15.2275L37.9513 14.7861L37.2433 17.6182C36.7767 17.5022 36.2962 17.393 35.8185 17.2852L36.5323 14.4336L34.756 13.9922L34.0275 16.9004ZM34.0079 24.6943C35.2128 24.9938 39.0752 25.5873 38.5021 27.8799C37.9521 30.0778 34.2373 28.8894 33.0323 28.5908L34.0079 24.6943ZM35.34 19.376C36.3439 19.6261 39.5735 20.0921 39.0529 22.1768C38.5514 24.1744 35.4591 23.1595 34.4552 22.9111L35.34 19.376Z" fill="#333232"/>
<defs>
<linearGradient id="paint0_linear_55_2557" x1="35" y1="48" x2="35" y2="0" gradientUnits="userSpaceOnUse">
<stop stop-color="#161616"/>
<stop offset="1" stop-color="#0D0D0D"/>
</linearGradient>
</defs>
</svg>
