<svg width="42" height="42" viewBox="0 0 42 42" fill="none" xmlns="http://www.w3.org/2000/svg">
<path d="M33.6816 30.6077C33.2566 30.1828 32.5686 30.1828 32.1447 30.6077H32.1436L29.0394 27.5035C30.0633 26.285 30.8089 24.9362 30.9208 23.796C30.9785 23.1982 30.5426 22.6667 29.9448 22.608C29.3372 22.5471 28.8155 22.9873 28.7568 23.5841C28.7438 23.7253 28.7024 23.8797 28.6503 24.0384L25.6112 21.0004L32.1447 14.4669C32.2632 14.3474 32.3534 14.2017 32.4067 14.042L33.9436 9.43124C34.074 9.03995 33.9718 8.60953 33.6816 8.31825C33.3904 8.02698 32.9588 7.92589 32.5686 8.05632L27.9579 9.59326C27.7981 9.64651 27.6524 9.73674 27.5329 9.85631L20.9994 16.3887L14.467 9.85626C14.3486 9.73669 14.2029 9.64651 14.0421 9.59321L9.4313 8.05632C9.04327 7.92589 8.60959 8.02591 8.31939 8.31825C8.02811 8.60953 7.9259 9.03995 8.05633 9.43124L9.59322 14.042C9.64646 14.2017 9.7367 14.3474 9.85627 14.4669L16.3886 20.9993L13.3366 24.0524C13.2899 23.9014 13.254 23.7557 13.2463 23.6242C13.2105 23.0253 12.692 22.5699 12.0953 22.6047C11.4953 22.6416 11.041 23.1568 11.0769 23.7557C11.1453 24.8894 11.8996 26.2643 12.9551 27.5078L9.85627 30.6077C9.4313 30.1827 8.74328 30.1827 8.31939 30.6077C7.89442 31.0316 7.89442 31.7196 8.31939 32.1446L9.85627 33.6815C10.0682 33.8934 10.3465 34 10.6247 34C10.903 34 11.1801 33.8934 11.3932 33.6815C11.8171 33.2565 11.8171 32.5685 11.3932 32.1446L14.4964 29.0403C15.7148 30.0642 17.0648 30.8087 18.2049 30.9196C18.2419 30.9239 18.2767 30.9251 18.3115 30.9251C18.8647 30.9251 19.3375 30.5055 19.3919 29.9436C19.4506 29.3468 19.0125 28.8143 18.4158 28.7567C18.2745 28.7425 18.1202 28.7023 17.9615 28.649L21.0005 25.6111L24.0526 28.6632C23.9015 28.7099 23.7559 28.7457 23.6244 28.7534C23.0244 28.7893 22.569 29.3045 22.6048 29.9044C22.6396 30.4805 23.119 30.9251 23.6885 30.9251C23.7113 30.9251 23.7331 30.9251 23.7559 30.9229C24.8896 30.8544 26.2634 30.1001 27.5068 29.0447L30.6067 32.1446C30.1828 32.5685 30.1828 33.2565 30.6067 33.6815C30.8198 33.8934 31.098 34 31.3763 34C31.6534 34 31.9317 33.8934 32.1447 33.6815L33.6816 32.1446C34.1055 31.7197 34.1055 31.0316 33.6816 30.6077ZM16.0463 27.4905C15.7583 27.2568 15.4757 27.0035 15.2083 26.7372C15.2007 26.7296 15.1931 26.7209 15.1855 26.7133C14.9453 26.472 14.7149 26.2177 14.5018 25.9601L17.9256 22.5374L19.4636 24.0743L16.0463 27.4905ZM23.1928 18.5821L22.5374 17.9256L28.8883 11.5747L31.1947 10.8062L30.4251 13.1116L24.0743 19.4636L23.1928 18.5821Z" fill="black"/>
<path d="M33.6816 30.6077C33.2566 30.1828 32.5686 30.1828 32.1447 30.6077H32.1436L29.0394 27.5035C30.0633 26.285 30.8089 24.9362 30.9208 23.796C30.9785 23.1982 30.5426 22.6667 29.9448 22.608C29.3372 22.5471 28.8155 22.9873 28.7568 23.5841C28.7438 23.7253 28.7024 23.8797 28.6503 24.0384L25.6112 21.0004L32.1447 14.4669C32.2632 14.3474 32.3534 14.2017 32.4067 14.042L33.9436 9.43124C34.074 9.03995 33.9718 8.60953 33.6816 8.31825C33.3904 8.02698 32.9588 7.92589 32.5686 8.05632L27.9579 9.59326C27.7981 9.64651 27.6524 9.73674 27.5329 9.85631L20.9994 16.3887L14.467 9.85626C14.3486 9.73669 14.2029 9.64651 14.0421 9.59321L9.4313 8.05632C9.04327 7.92589 8.60959 8.02591 8.31939 8.31825C8.02811 8.60953 7.9259 9.03995 8.05633 9.43124L9.59322 14.042C9.64646 14.2017 9.7367 14.3474 9.85627 14.4669L16.3886 20.9993L13.3366 24.0524C13.2899 23.9014 13.254 23.7557 13.2463 23.6242C13.2105 23.0253 12.692 22.5699 12.0953 22.6047C11.4953 22.6416 11.041 23.1568 11.0769 23.7557C11.1453 24.8894 11.8996 26.2643 12.9551 27.5078L9.85627 30.6077C9.4313 30.1827 8.74328 30.1827 8.31939 30.6077C7.89442 31.0316 7.89442 31.7196 8.31939 32.1446L9.85627 33.6815C10.0682 33.8934 10.3465 34 10.6247 34C10.903 34 11.1801 33.8934 11.3932 33.6815C11.8171 33.2565 11.8171 32.5685 11.3932 32.1446L14.4964 29.0403C15.7148 30.0642 17.0648 30.8087 18.2049 30.9196C18.2419 30.9239 18.2767 30.9251 18.3115 30.9251C18.8647 30.9251 19.3375 30.5055 19.3919 29.9436C19.4506 29.3468 19.0125 28.8143 18.4158 28.7567C18.2745 28.7425 18.1202 28.7023 17.9615 28.649L21.0005 25.6111L24.0526 28.6632C23.9015 28.7099 23.7559 28.7457 23.6244 28.7534C23.0244 28.7893 22.569 29.3045 22.6048 29.9044C22.6396 30.4805 23.119 30.9251 23.6885 30.9251C23.7113 30.9251 23.7331 30.9251 23.7559 30.9229C24.8896 30.8544 26.2634 30.1001 27.5068 29.0447L30.6067 32.1446C30.1828 32.5685 30.1828 33.2565 30.6067 33.6815C30.8198 33.8934 31.098 34 31.3763 34C31.6534 34 31.9317 33.8934 32.1447 33.6815L33.6816 32.1446C34.1055 31.7197 34.1055 31.0316 33.6816 30.6077ZM16.0463 27.4905C15.7583 27.2568 15.4757 27.0035 15.2083 26.7372C15.2007 26.7296 15.1931 26.7209 15.1855 26.7133C14.9453 26.472 14.7149 26.2177 14.5018 25.9601L17.9256 22.5374L19.4636 24.0743L16.0463 27.4905ZM23.1928 18.5821L22.5374 17.9256L28.8883 11.5747L31.1947 10.8062L30.4251 13.1116L24.0743 19.4636L23.1928 18.5821Z" fill="#828282"/>
</svg>
