<svg width="68" height="65" viewBox="0 0 68 65" fill="none" xmlns="http://www.w3.org/2000/svg">
<g clip-path="url(#clip0_2017_906)">
<path d="M48.3857 13.2826C57.618 22.5149 61.0296 26.0235 60.9649 26.2175C60.8679 26.4439 59.8816 26.4762 50.908 26.4762C42.5811 26.4762 40.8834 26.4439 40.5115 26.2499C40.269 26.1205 38.7007 24.633 37.003 22.9353C35.0951 21.0112 33.8177 19.8471 33.6075 19.8471C33.2195 19.8471 23.9872 29.0147 23.9872 29.4027C23.9872 29.5483 24.1004 29.7261 24.2459 29.7746C24.3914 29.8231 33.6075 29.8716 44.7316 29.8716H64.9585L66.1388 31.0519C67.1413 32.0706 67.3192 32.3131 67.3192 32.7982C67.3192 33.3156 66.3167 34.3504 51.5062 49.1447C36.34 64.3108 35.6771 64.9576 35.1274 64.9576C34.7878 64.9576 34.3675 64.8282 34.1573 64.6504L33.7692 64.3432L33.6884 58.765L33.6075 53.1868L33.2195 52.7664L32.8476 52.3622L26.0245 52.3137C19.3306 52.2652 19.2013 52.2652 18.6516 51.9095C18.3443 51.7155 15.434 48.9021 12.2003 45.6684C7.91558 41.3675 6.34722 39.7022 6.39572 39.4758C6.44423 39.1848 6.7676 39.1686 16.582 39.1686H26.7197L30.0181 42.4347C32.023 44.4396 33.4297 45.7169 33.6075 45.7169C33.9956 45.7169 43.2279 36.5331 43.2279 36.1612C43.2279 36.0157 43.1147 35.8379 42.9692 35.7894C42.8237 35.7409 33.6237 35.6923 22.4997 35.6923H2.30506L1.31877 34.7546C0.0899554 33.5904 -0.20108 32.9922 0.122293 32.2484C0.364823 31.6987 18.118 13.897 18.8132 13.5251C19.1366 13.3473 20.6565 13.2826 26.0083 13.2503L32.7991 13.2179L33.2033 12.8137L33.6075 12.4095L33.6884 6.81516L33.7692 1.22081L34.1573 0.913612C34.3675 0.735756 34.7878 0.6064 35.1274 0.6064C35.6933 0.6064 36.2269 1.1238 48.3857 13.2826Z" fill="#F75154"/>
</g>
<defs>
<clipPath id="clip0_2017_906">
<rect width="67.3019" height="64.9979" fill="white"/>
</clipPath>
</defs>
</svg>
