<svg width="42" height="42" viewBox="0 0 42 42" fill="none" xmlns="http://www.w3.org/2000/svg">
<g filter="url(#filter0_ii_19_640)">
<rect width="42" height="42" rx="8" fill="white"/>
<rect width="42" height="42" rx="8" fill="url(#paint0_linear_19_640)"/>
<path d="M34.5 15.3C33.7 13.4 32.6 11.8 31.3 10.4C29.9 9 28.3 7.9 26.5 7.2C24.6 6.4 22.6 6 20.6 6C18.6 6 16.6 6.4 14.9 7.1C13 7.9 11.4 9 9.99998 10.4C8.59998 11.8 7.49998 13.4 6.79998 15.2C5.99998 17.1 5.59998 19 5.59998 21C5.59998 23 5.99998 24.9 6.69998 26.7C7.49998 28.5 8.59998 30.1 9.89998 31.5C11.3 32.9 12.9 34 14.7 34.7C16.6 35.6 18.6 36 20.6 36C22.6 36 24.6 35.6 26.3 34.9C28.1 34.1 29.7 33 31.1 31.7C32.5 30.3 33.6 28.7 34.3 26.9C35.2 24.9 35.6 23 35.6 21C35.6 19 35.2 17.1 34.5 15.3ZM32.2 15.1L29.4 16.2C29.1 15.6 28.7 15.1 28.3 14.6L30.4 12.5C31.1 13.3 31.7 14.2 32.2 15.1ZM26.5 9.4C27.4 9.9 28.3 10.4 29.1 11.1L27 13.2C26.5 12.8 26 12.4 25.4 12.1L26.5 9.4ZM21.6 8.1C22.7 8.2 23.7 8.4 24.6 8.7L23.4 11.5C22.8 11.3 22.2 11.2 21.5 11.1V8.1H21.6ZM19.6 8.1V11.1C19 11.2 18.3 11.3 17.7 11.5L16.6 8.6C17.5 8.3 18.5 8.1 19.6 8.1ZM14.7 9.4L15.8 12.2C15.2 12.5 14.7 12.9 14.2 13.3L12.2 11.1C12.9 10.5 13.8 9.9 14.7 9.4ZM10.7 12.6L12.8 14.7C12.4 15.2 12 15.7 11.7 16.3L8.89998 15.2C9.49998 14.2 10.1 13.3 10.7 12.6ZM8.19998 17L11 18.2C10.8 18.8 10.7 19.4 10.6 20.1H7.59998C7.69998 18.9 7.89998 17.9 8.19998 17ZM7.69998 22H10.7C10.8 22.6 10.9 23.3 11.1 23.9L8.19998 25C7.89998 24.1 7.69998 23.1 7.69998 22ZM8.99998 26.9L11.8 25.8C12.1 26.4 12.5 26.9 12.9 27.4L10.8 29.5C10.1 28.7 9.49998 27.8 8.99998 26.9ZM14.7 32.6C13.8 32.1 12.9 31.6 12.1 30.9L14.2 28.8C14.7 29.2 15.2 29.6 15.8 29.9L14.7 32.6ZM19.6 33.9C18.5 33.8 17.5 33.6 16.6 33.3L17.8 30.5C18.4 30.7 19 30.8 19.7 30.9V33.9H19.6ZM18.6 26C18.6 25.3 19 24.6 19.6 24.3V22.7C19.3 22.5 19.1 22.3 18.9 22H17.3C17 22.6 16.3 23 15.6 23C14.5 23 13.6 22.1 13.6 21C13.6 19.9 14.5 19 15.6 19C16.3 19 17 19.4 17.3 20H18.9C19.1 19.7 19.3 19.5 19.6 19.3V17.7C19 17.4 18.6 16.7 18.6 16C18.6 14.9 19.5 14 20.6 14C21.7 14 22.6 14.9 22.6 16C22.6 16.7 22.2 17.4 21.6 17.7V19.3C21.9 19.5 22.1 19.7 22.3 20H23.9C24.2 19.4 24.9 19 25.6 19C26.7 19 27.6 19.9 27.6 21C27.6 22.1 26.7 23 25.6 23C24.9 23 24.2 22.6 23.9 22H22.3C22.1 22.3 21.9 22.5 21.6 22.7V24.3C22.2 24.6 22.6 25.3 22.6 26C22.6 27.1 21.7 28 20.6 28C19.5 28 18.6 27.1 18.6 26ZM21.6 33.9V30.9C22.2 30.8 22.9 30.7 23.5 30.5L24.7 33.3C23.7 33.7 22.7 33.9 21.6 33.9ZM26.5 32.6L25.4 29.8C26 29.5 26.5 29.1 27 28.7L29.1 30.8C28.3 31.5 27.4 32.1 26.5 32.6ZM30.5 29.4L28.4 27.3C28.8 26.8 29.2 26.3 29.5 25.7L32.3 26.8C31.7 27.8 31.1 28.7 30.5 29.4ZM33 25L30.2 23.8C30.4 23.2 30.5 22.6 30.6 21.9H33.6C33.5 23.1 33.3 24.1 33 25ZM30.5 20C30.4 19.4 30.3 18.7 30.1 18.1L32.9 16.9C33.2 17.9 33.4 18.9 33.5 19.9H30.5V20Z" fill="black"/>
<path d="M34.5 15.3C33.7 13.4 32.6 11.8 31.3 10.4C29.9 9 28.3 7.9 26.5 7.2C24.6 6.4 22.6 6 20.6 6C18.6 6 16.6 6.4 14.9 7.1C13 7.9 11.4 9 9.99998 10.4C8.59998 11.8 7.49998 13.4 6.79998 15.2C5.99998 17.1 5.59998 19 5.59998 21C5.59998 23 5.99998 24.9 6.69998 26.7C7.49998 28.5 8.59998 30.1 9.89998 31.5C11.3 32.9 12.9 34 14.7 34.7C16.6 35.6 18.6 36 20.6 36C22.6 36 24.6 35.6 26.3 34.9C28.1 34.1 29.7 33 31.1 31.7C32.5 30.3 33.6 28.7 34.3 26.9C35.2 24.9 35.6 23 35.6 21C35.6 19 35.2 17.1 34.5 15.3ZM32.2 15.1L29.4 16.2C29.1 15.6 28.7 15.1 28.3 14.6L30.4 12.5C31.1 13.3 31.7 14.2 32.2 15.1ZM26.5 9.4C27.4 9.9 28.3 10.4 29.1 11.1L27 13.2C26.5 12.8 26 12.4 25.4 12.1L26.5 9.4ZM21.6 8.1C22.7 8.2 23.7 8.4 24.6 8.7L23.4 11.5C22.8 11.3 22.2 11.2 21.5 11.1V8.1H21.6ZM19.6 8.1V11.1C19 11.2 18.3 11.3 17.7 11.5L16.6 8.6C17.5 8.3 18.5 8.1 19.6 8.1ZM14.7 9.4L15.8 12.2C15.2 12.5 14.7 12.9 14.2 13.3L12.2 11.1C12.9 10.5 13.8 9.9 14.7 9.4ZM10.7 12.6L12.8 14.7C12.4 15.2 12 15.7 11.7 16.3L8.89998 15.2C9.49998 14.2 10.1 13.3 10.7 12.6ZM8.19998 17L11 18.2C10.8 18.8 10.7 19.4 10.6 20.1H7.59998C7.69998 18.9 7.89998 17.9 8.19998 17ZM7.69998 22H10.7C10.8 22.6 10.9 23.3 11.1 23.9L8.19998 25C7.89998 24.1 7.69998 23.1 7.69998 22ZM8.99998 26.9L11.8 25.8C12.1 26.4 12.5 26.9 12.9 27.4L10.8 29.5C10.1 28.7 9.49998 27.8 8.99998 26.9ZM14.7 32.6C13.8 32.1 12.9 31.6 12.1 30.9L14.2 28.8C14.7 29.2 15.2 29.6 15.8 29.9L14.7 32.6ZM19.6 33.9C18.5 33.8 17.5 33.6 16.6 33.3L17.8 30.5C18.4 30.7 19 30.8 19.7 30.9V33.9H19.6ZM18.6 26C18.6 25.3 19 24.6 19.6 24.3V22.7C19.3 22.5 19.1 22.3 18.9 22H17.3C17 22.6 16.3 23 15.6 23C14.5 23 13.6 22.1 13.6 21C13.6 19.9 14.5 19 15.6 19C16.3 19 17 19.4 17.3 20H18.9C19.1 19.7 19.3 19.5 19.6 19.3V17.7C19 17.4 18.6 16.7 18.6 16C18.6 14.9 19.5 14 20.6 14C21.7 14 22.6 14.9 22.6 16C22.6 16.7 22.2 17.4 21.6 17.7V19.3C21.9 19.5 22.1 19.7 22.3 20H23.9C24.2 19.4 24.9 19 25.6 19C26.7 19 27.6 19.9 27.6 21C27.6 22.1 26.7 23 25.6 23C24.9 23 24.2 22.6 23.9 22H22.3C22.1 22.3 21.9 22.5 21.6 22.7V24.3C22.2 24.6 22.6 25.3 22.6 26C22.6 27.1 21.7 28 20.6 28C19.5 28 18.6 27.1 18.6 26ZM21.6 33.9V30.9C22.2 30.8 22.9 30.7 23.5 30.5L24.7 33.3C23.7 33.7 22.7 33.9 21.6 33.9ZM26.5 32.6L25.4 29.8C26 29.5 26.5 29.1 27 28.7L29.1 30.8C28.3 31.5 27.4 32.1 26.5 32.6ZM30.5 29.4L28.4 27.3C28.8 26.8 29.2 26.3 29.5 25.7L32.3 26.8C31.7 27.8 31.1 28.7 30.5 29.4ZM33 25L30.2 23.8C30.4 23.2 30.5 22.6 30.6 21.9H33.6C33.5 23.1 33.3 24.1 33 25ZM30.5 20C30.4 19.4 30.3 18.7 30.1 18.1L32.9 16.9C33.2 17.9 33.4 18.9 33.5 19.9H30.5V20Z" fill="#F34950"/>
</g>
<defs>
<filter id="filter0_ii_19_640" x="0" y="0" width="42" height="42" filterUnits="userSpaceOnUse" color-interpolation-filters="sRGB">
<feFlood flood-opacity="0" result="BackgroundImageFix"/>
<feBlend mode="normal" in="SourceGraphic" in2="BackgroundImageFix" result="shape"/>
<feColorMatrix in="SourceAlpha" type="matrix" values="0 0 0 0 0 0 0 0 0 0 0 0 0 0 0 0 0 0 127 0" result="hardAlpha"/>
<feOffset dy="1"/>
<feComposite in2="hardAlpha" operator="arithmetic" k2="-1" k3="1"/>
<feColorMatrix type="matrix" values="0 0 0 0 0.144231 0 0 0 0 0.144231 0 0 0 0 0.144231 0 0 0 0.34 0"/>
<feBlend mode="normal" in2="shape" result="effect1_innerShadow_19_640"/>
<feColorMatrix in="SourceAlpha" type="matrix" values="0 0 0 0 0 0 0 0 0 0 0 0 0 0 0 0 0 0 127 0" result="hardAlpha"/>
<feOffset dy="-1"/>
<feComposite in2="hardAlpha" operator="arithmetic" k2="-1" k3="1"/>
<feColorMatrix type="matrix" values="0 0 0 0 0.139423 0 0 0 0 0.139423 0 0 0 0 0.139423 0 0 0 0.39 0"/>
<feBlend mode="normal" in2="effect1_innerShadow_19_640" result="effect2_innerShadow_19_640"/>
</filter>
<linearGradient id="paint0_linear_19_640" x1="21" y1="42" x2="21" y2="0" gradientUnits="userSpaceOnUse">
<stop stop-color="#161616"/>
<stop offset="1" stop-color="#0D0D0D"/>
</linearGradient>
</defs>
</svg>
