<svg width="42" height="42" viewBox="0 0 42 42" fill="none" xmlns="http://www.w3.org/2000/svg">
<path d="M34.8999 15.3C34.0999 13.4 32.9999 11.8 31.6999 10.4C30.2999 9 28.6999 7.9 26.8999 7.2C24.9999 6.4 22.9999 6 20.9999 6C18.9999 6 16.9999 6.4 15.2999 7.1C13.3999 7.9 11.7999 9 10.3999 10.4C8.99994 11.8 7.89994 13.4 7.19994 15.2C6.39994 17.1 5.99994 19 5.99994 21C5.99994 23 6.39994 24.9 7.09994 26.7C7.89994 28.5 8.99994 30.1 10.2999 31.5C11.6999 32.9 13.2999 34 15.0999 34.7C16.9999 35.6 18.9999 36 20.9999 36C22.9999 36 24.9999 35.6 26.6999 34.9C28.4999 34.1 30.0999 33 31.4999 31.7C32.8999 30.3 33.9999 28.7 34.6999 26.9C35.5999 24.9 35.9999 23 35.9999 21C35.9999 19 35.5999 17.1 34.8999 15.3ZM32.5999 15.1L29.7999 16.2C29.4999 15.6 29.0999 15.1 28.6999 14.6L30.7999 12.5C31.4999 13.3 32.0999 14.2 32.5999 15.1ZM26.8999 9.4C27.7999 9.9 28.6999 10.4 29.4999 11.1L27.3999 13.2C26.8999 12.8 26.3999 12.4 25.7999 12.1L26.8999 9.4ZM21.9999 8.1C23.0999 8.2 24.0999 8.4 24.9999 8.7L23.7999 11.5C23.1999 11.3 22.5999 11.2 21.8999 11.1V8.1H21.9999ZM19.9999 8.1V11.1C19.3999 11.2 18.6999 11.3 18.0999 11.5L16.9999 8.6C17.8999 8.3 18.8999 8.1 19.9999 8.1ZM15.0999 9.4L16.1999 12.2C15.5999 12.5 15.0999 12.9 14.5999 13.3L12.5999 11.1C13.2999 10.5 14.1999 9.9 15.0999 9.4ZM11.0999 12.6L13.1999 14.7C12.7999 15.2 12.3999 15.7 12.0999 16.3L9.29994 15.2C9.89994 14.2 10.4999 13.3 11.0999 12.6ZM8.59994 17L11.3999 18.2C11.1999 18.8 11.0999 19.4 10.9999 20.1H7.99994C8.09994 18.9 8.29994 17.9 8.59994 17ZM8.09994 22H11.0999C11.1999 22.6 11.2999 23.3 11.4999 23.9L8.59994 25C8.29994 24.1 8.09994 23.1 8.09994 22ZM9.39994 26.9L12.1999 25.8C12.4999 26.4 12.8999 26.9 13.2999 27.4L11.1999 29.5C10.4999 28.7 9.89994 27.8 9.39994 26.9ZM15.0999 32.6C14.1999 32.1 13.2999 31.6 12.4999 30.9L14.5999 28.8C15.0999 29.2 15.5999 29.6 16.1999 29.9L15.0999 32.6ZM19.9999 33.9C18.8999 33.8 17.8999 33.6 16.9999 33.3L18.1999 30.5C18.7999 30.7 19.3999 30.8 20.0999 30.9V33.9H19.9999ZM18.9999 26C18.9999 25.3 19.3999 24.6 19.9999 24.3V22.7C19.6999 22.5 19.4999 22.3 19.2999 22H17.6999C17.3999 22.6 16.6999 23 15.9999 23C14.8999 23 13.9999 22.1 13.9999 21C13.9999 19.9 14.8999 19 15.9999 19C16.6999 19 17.3999 19.4 17.6999 20H19.2999C19.4999 19.7 19.6999 19.5 19.9999 19.3V17.7C19.3999 17.4 18.9999 16.7 18.9999 16C18.9999 14.9 19.8999 14 20.9999 14C22.0999 14 22.9999 14.9 22.9999 16C22.9999 16.7 22.5999 17.4 21.9999 17.7V19.3C22.2999 19.5 22.4999 19.7 22.6999 20H24.2999C24.5999 19.4 25.2999 19 25.9999 19C27.0999 19 27.9999 19.9 27.9999 21C27.9999 22.1 27.0999 23 25.9999 23C25.2999 23 24.5999 22.6 24.2999 22H22.6999C22.4999 22.3 22.2999 22.5 21.9999 22.7V24.3C22.5999 24.6 22.9999 25.3 22.9999 26C22.9999 27.1 22.0999 28 20.9999 28C19.8999 28 18.9999 27.1 18.9999 26ZM21.9999 33.9V30.9C22.5999 30.8 23.2999 30.7 23.8999 30.5L25.0999 33.3C24.0999 33.7 23.0999 33.9 21.9999 33.9ZM26.8999 32.6L25.7999 29.8C26.3999 29.5 26.8999 29.1 27.3999 28.7L29.4999 30.8C28.6999 31.5 27.7999 32.1 26.8999 32.6ZM30.8999 29.4L28.7999 27.3C29.1999 26.8 29.5999 26.3 29.8999 25.7L32.6999 26.8C32.0999 27.8 31.4999 28.7 30.8999 29.4ZM33.3999 25L30.5999 23.8C30.7999 23.2 30.8999 22.6 30.9999 21.9H33.9999C33.8999 23.1 33.6999 24.1 33.3999 25ZM30.8999 20C30.7999 19.4 30.6999 18.7 30.4999 18.1L33.2999 16.9C33.5999 17.9 33.7999 18.9 33.8999 19.9H30.8999V20Z" fill="black"/>
<path d="M34.8999 15.3C34.0999 13.4 32.9999 11.8 31.6999 10.4C30.2999 9 28.6999 7.9 26.8999 7.2C24.9999 6.4 22.9999 6 20.9999 6C18.9999 6 16.9999 6.4 15.2999 7.1C13.3999 7.9 11.7999 9 10.3999 10.4C8.99994 11.8 7.89994 13.4 7.19994 15.2C6.39994 17.1 5.99994 19 5.99994 21C5.99994 23 6.39994 24.9 7.09994 26.7C7.89994 28.5 8.99994 30.1 10.2999 31.5C11.6999 32.9 13.2999 34 15.0999 34.7C16.9999 35.6 18.9999 36 20.9999 36C22.9999 36 24.9999 35.6 26.6999 34.9C28.4999 34.1 30.0999 33 31.4999 31.7C32.8999 30.3 33.9999 28.7 34.6999 26.9C35.5999 24.9 35.9999 23 35.9999 21C35.9999 19 35.5999 17.1 34.8999 15.3ZM32.5999 15.1L29.7999 16.2C29.4999 15.6 29.0999 15.1 28.6999 14.6L30.7999 12.5C31.4999 13.3 32.0999 14.2 32.5999 15.1ZM26.8999 9.4C27.7999 9.9 28.6999 10.4 29.4999 11.1L27.3999 13.2C26.8999 12.8 26.3999 12.4 25.7999 12.1L26.8999 9.4ZM21.9999 8.1C23.0999 8.2 24.0999 8.4 24.9999 8.7L23.7999 11.5C23.1999 11.3 22.5999 11.2 21.8999 11.1V8.1H21.9999ZM19.9999 8.1V11.1C19.3999 11.2 18.6999 11.3 18.0999 11.5L16.9999 8.6C17.8999 8.3 18.8999 8.1 19.9999 8.1ZM15.0999 9.4L16.1999 12.2C15.5999 12.5 15.0999 12.9 14.5999 13.3L12.5999 11.1C13.2999 10.5 14.1999 9.9 15.0999 9.4ZM11.0999 12.6L13.1999 14.7C12.7999 15.2 12.3999 15.7 12.0999 16.3L9.29994 15.2C9.89994 14.2 10.4999 13.3 11.0999 12.6ZM8.59994 17L11.3999 18.2C11.1999 18.8 11.0999 19.4 10.9999 20.1H7.99994C8.09994 18.9 8.29994 17.9 8.59994 17ZM8.09994 22H11.0999C11.1999 22.6 11.2999 23.3 11.4999 23.9L8.59994 25C8.29994 24.1 8.09994 23.1 8.09994 22ZM9.39994 26.9L12.1999 25.8C12.4999 26.4 12.8999 26.9 13.2999 27.4L11.1999 29.5C10.4999 28.7 9.89994 27.8 9.39994 26.9ZM15.0999 32.6C14.1999 32.1 13.2999 31.6 12.4999 30.9L14.5999 28.8C15.0999 29.2 15.5999 29.6 16.1999 29.9L15.0999 32.6ZM19.9999 33.9C18.8999 33.8 17.8999 33.6 16.9999 33.3L18.1999 30.5C18.7999 30.7 19.3999 30.8 20.0999 30.9V33.9H19.9999ZM18.9999 26C18.9999 25.3 19.3999 24.6 19.9999 24.3V22.7C19.6999 22.5 19.4999 22.3 19.2999 22H17.6999C17.3999 22.6 16.6999 23 15.9999 23C14.8999 23 13.9999 22.1 13.9999 21C13.9999 19.9 14.8999 19 15.9999 19C16.6999 19 17.3999 19.4 17.6999 20H19.2999C19.4999 19.7 19.6999 19.5 19.9999 19.3V17.7C19.3999 17.4 18.9999 16.7 18.9999 16C18.9999 14.9 19.8999 14 20.9999 14C22.0999 14 22.9999 14.9 22.9999 16C22.9999 16.7 22.5999 17.4 21.9999 17.7V19.3C22.2999 19.5 22.4999 19.7 22.6999 20H24.2999C24.5999 19.4 25.2999 19 25.9999 19C27.0999 19 27.9999 19.9 27.9999 21C27.9999 22.1 27.0999 23 25.9999 23C25.2999 23 24.5999 22.6 24.2999 22H22.6999C22.4999 22.3 22.2999 22.5 21.9999 22.7V24.3C22.5999 24.6 22.9999 25.3 22.9999 26C22.9999 27.1 22.0999 28 20.9999 28C19.8999 28 18.9999 27.1 18.9999 26ZM21.9999 33.9V30.9C22.5999 30.8 23.2999 30.7 23.8999 30.5L25.0999 33.3C24.0999 33.7 23.0999 33.9 21.9999 33.9ZM26.8999 32.6L25.7999 29.8C26.3999 29.5 26.8999 29.1 27.3999 28.7L29.4999 30.8C28.6999 31.5 27.7999 32.1 26.8999 32.6ZM30.8999 29.4L28.7999 27.3C29.1999 26.8 29.5999 26.3 29.8999 25.7L32.6999 26.8C32.0999 27.8 31.4999 28.7 30.8999 29.4ZM33.3999 25L30.5999 23.8C30.7999 23.2 30.8999 22.6 30.9999 21.9H33.9999C33.8999 23.1 33.6999 24.1 33.3999 25ZM30.8999 20C30.7999 19.4 30.6999 18.7 30.4999 18.1L33.2999 16.9C33.5999 17.9 33.7999 18.9 33.8999 19.9H30.8999V20Z" fill="#828282"/>
</svg>
