<svg width="93" height="127" viewBox="0 0 93 127" fill="none" xmlns="http://www.w3.org/2000/svg">
<g filter="url(#filter0_dii_2044_3068)">
<path fill-rule="evenodd" clip-rule="evenodd" d="M47.3112 80.7395C63.497 87.8416 78.253 80.9055 77.7451 66.7961C77.2374 52.6863 72.8736 47.7079 67.8548 35.5044C62.8318 23.2991 56.527 3.19746 58.0648 -0.260016C56.6501 3.2497 38.3284 12.898 26.0593 17.7633C13.7945 22.6303 7.18629 22.9513 -3.32041 32.3858C-13.8227 41.8217 -8.55746 57.2563 7.7907 63.9641C19.0152 68.5695 26.9626 63.819 30.8395 60.3856L28.4486 66.0181C28.4486 66.0181 16.2591 84.822 -9.84635 76.3657L-13.8574 74.6632L-15.2013 77.8291L53.3133 106.912L54.6572 103.746L50.6419 102.041C26.4289 89.1388 31.4834 67.3063 31.4834 67.3063L33.5604 62.4133C34.1467 67.7468 36.8176 76.135 47.3112 80.7395Z" fill="#7B7979"/>
<path fill-rule="evenodd" clip-rule="evenodd" d="M47.3112 80.7395C63.497 87.8416 78.253 80.9055 77.7451 66.7961C77.2374 52.6863 72.8736 47.7079 67.8548 35.5044C62.8318 23.2991 56.527 3.19746 58.0648 -0.260016C56.6501 3.2497 38.3284 12.898 26.0593 17.7633C13.7945 22.6303 7.18629 22.9513 -3.32041 32.3858C-13.8227 41.8217 -8.55746 57.2563 7.7907 63.9641C19.0152 68.5695 26.9626 63.819 30.8395 60.3856L28.4486 66.0181C28.4486 66.0181 16.2591 84.822 -9.84635 76.3657L-13.8574 74.6632L-15.2013 77.8291L53.3133 106.912L54.6572 103.746L50.6419 102.041C26.4289 89.1388 31.4834 67.3063 31.4834 67.3063L33.5604 62.4133C34.1467 67.7468 36.8176 76.135 47.3112 80.7395Z" fill="url(#paint0_linear_2044_3068)"/>
</g>
<defs>
<filter id="filter0_dii_2044_3068" x="-30.4012" y="-11.46" width="123.359" height="137.572" filterUnits="userSpaceOnUse" color-interpolation-filters="sRGB">
<feFlood flood-opacity="0" result="BackgroundImageFix"/>
<feColorMatrix in="SourceAlpha" type="matrix" values="0 0 0 0 0 0 0 0 0 0 0 0 0 0 0 0 0 0 127 0" result="hardAlpha"/>
<feOffset dy="4"/>
<feGaussianBlur stdDeviation="7.6"/>
<feComposite in2="hardAlpha" operator="out"/>
<feColorMatrix type="matrix" values="0 0 0 0 0 0 0 0 0 0 0 0 0 0 0 0 0 0 0.05 0"/>
<feBlend mode="normal" in2="BackgroundImageFix" result="effect1_dropShadow_2044_3068"/>
<feBlend mode="normal" in="SourceGraphic" in2="effect1_dropShadow_2044_3068" result="shape"/>
<feColorMatrix in="SourceAlpha" type="matrix" values="0 0 0 0 0 0 0 0 0 0 0 0 0 0 0 0 0 0 127 0" result="hardAlpha"/>
<feOffset dy="-1"/>
<feGaussianBlur stdDeviation="0.4"/>
<feComposite in2="hardAlpha" operator="arithmetic" k2="-1" k3="1"/>
<feColorMatrix type="matrix" values="0 0 0 0 0 0 0 0 0 0 0 0 0 0 0 0 0 0 0.12 0"/>
<feBlend mode="normal" in2="shape" result="effect2_innerShadow_2044_3068"/>
<feColorMatrix in="SourceAlpha" type="matrix" values="0 0 0 0 0 0 0 0 0 0 0 0 0 0 0 0 0 0 127 0" result="hardAlpha"/>
<feOffset dy="2"/>
<feGaussianBlur stdDeviation="4.45"/>
<feComposite in2="hardAlpha" operator="arithmetic" k2="-1" k3="1"/>
<feColorMatrix type="matrix" values="0 0 0 0 1 0 0 0 0 1 0 0 0 0 1 0 0 0 0.12 0"/>
<feBlend mode="normal" in2="effect2_innerShadow_2044_3068" result="effect3_innerShadow_2044_3068"/>
</filter>
<linearGradient id="paint0_linear_2044_3068" x1="58.326" y1="-0.149135" x2="19.0541" y2="92.3697" gradientUnits="userSpaceOnUse">
<stop stop-color="#7B7979"/>
<stop offset="1" stop-color="#282828"/>
</linearGradient>
</defs>
</svg>
