<svg width="80" height="88" viewBox="0 0 80 88" fill="none" xmlns="http://www.w3.org/2000/svg">
<path opacity="0.1" d="M39.9004 3.62695C39.9671 3.62702 40.0239 3.64404 40.0654 3.66699L76.126 23.5938C76.153 23.6087 76.166 23.6239 76.1729 23.6318V63.4219C76.1662 63.4298 76.1536 63.4456 76.126 63.4609L40.0654 83.3877C40.0239 83.4106 39.9671 83.4267 39.9004 83.4268C39.8335 83.4268 39.776 83.4107 39.7344 83.3877L3.67383 63.4609C3.64615 63.4456 3.6336 63.4297 3.62695 63.4219V23.6318C3.63377 23.6239 3.64675 23.6088 3.67383 23.5938L39.7344 3.66699C39.776 3.64399 39.8335 3.62695 39.9004 3.62695Z" stroke="#F34950" stroke-width="7.25454"/>
</svg>
