<svg width="42" height="42" viewBox="0 0 42 42" fill="none" xmlns="http://www.w3.org/2000/svg">
<g filter="url(#filter0_ii_55_2724)">
<rect width="42" height="42" rx="8" fill="white"/>
<rect width="42" height="42" rx="8" fill="url(#paint0_linear_55_2724)"/>
<path d="M33 22.0909V19.9091H29.6509C29.4535 18.3582 28.8431 16.8888 27.8836 15.6545L30.2727 13.2873L28.7127 11.7273L26.3454 14.1164C25.1111 13.1568 23.6418 12.5465 22.0909 12.3491V9H19.9091V12.3491C18.36 12.5455 16.8872 13.1564 15.6545 14.1164L13.2872 11.7273L11.7272 13.2873L14.1163 15.6545C13.1568 16.8888 12.5464 18.3582 12.3491 19.9091H8.99997V22.0909H12.3491C12.5454 23.64 13.1563 25.1127 14.1163 26.3455L11.7272 28.7127L13.2872 30.2727L15.6545 27.8836C16.8872 28.8436 18.36 29.4545 19.9091 29.6509V33H22.0909V29.6509C23.64 29.4545 25.1127 28.8436 26.3454 27.8836L28.7127 30.2727L30.2727 28.7127L27.8836 26.3455C28.8431 25.1112 29.4535 23.6418 29.6509 22.0909H33ZM21 16.6364C19.8427 16.6364 18.7328 17.0961 17.9144 17.9144C17.0961 18.7328 16.6363 19.8427 16.6363 21H14.4545C14.4545 19.264 15.1441 17.5992 16.3716 16.3717C17.5991 15.1442 19.264 14.4545 21 14.4545V16.6364Z" fill="#828282"/>
<path d="M33 22.0909V19.9091H29.6509C29.4535 18.3582 28.8431 16.8888 27.8836 15.6545L30.2727 13.2873L28.7127 11.7273L26.3454 14.1164C25.1111 13.1568 23.6418 12.5465 22.0909 12.3491V9H19.9091V12.3491C18.36 12.5455 16.8872 13.1564 15.6545 14.1164L13.2872 11.7273L11.7272 13.2873L14.1163 15.6545C13.1568 16.8888 12.5464 18.3582 12.3491 19.9091H8.99997V22.0909H12.3491C12.5454 23.64 13.1563 25.1127 14.1163 26.3455L11.7272 28.7127L13.2872 30.2727L15.6545 27.8836C16.8872 28.8436 18.36 29.4545 19.9091 29.6509V33H22.0909V29.6509C23.64 29.4545 25.1127 28.8436 26.3454 27.8836L28.7127 30.2727L30.2727 28.7127L27.8836 26.3455C28.8431 25.1112 29.4535 23.6418 29.6509 22.0909H33ZM21 16.6364C19.8427 16.6364 18.7328 17.0961 17.9144 17.9144C17.0961 18.7328 16.6363 19.8427 16.6363 21H14.4545C14.4545 19.264 15.1441 17.5992 16.3716 16.3717C17.5991 15.1442 19.264 14.4545 21 14.4545V16.6364Z" fill="#F34950"/>
</g>
<defs>
<filter id="filter0_ii_55_2724" x="0" y="0" width="42" height="42" filterUnits="userSpaceOnUse" color-interpolation-filters="sRGB">
<feFlood flood-opacity="0" result="BackgroundImageFix"/>
<feBlend mode="normal" in="SourceGraphic" in2="BackgroundImageFix" result="shape"/>
<feColorMatrix in="SourceAlpha" type="matrix" values="0 0 0 0 0 0 0 0 0 0 0 0 0 0 0 0 0 0 127 0" result="hardAlpha"/>
<feOffset dy="1"/>
<feComposite in2="hardAlpha" operator="arithmetic" k2="-1" k3="1"/>
<feColorMatrix type="matrix" values="0 0 0 0 0.144231 0 0 0 0 0.144231 0 0 0 0 0.144231 0 0 0 0.34 0"/>
<feBlend mode="normal" in2="shape" result="effect1_innerShadow_55_2724"/>
<feColorMatrix in="SourceAlpha" type="matrix" values="0 0 0 0 0 0 0 0 0 0 0 0 0 0 0 0 0 0 127 0" result="hardAlpha"/>
<feOffset dy="-1"/>
<feComposite in2="hardAlpha" operator="arithmetic" k2="-1" k3="1"/>
<feColorMatrix type="matrix" values="0 0 0 0 0.139423 0 0 0 0 0.139423 0 0 0 0 0.139423 0 0 0 0.39 0"/>
<feBlend mode="normal" in2="effect1_innerShadow_55_2724" result="effect2_innerShadow_55_2724"/>
</filter>
<linearGradient id="paint0_linear_55_2724" x1="21" y1="42" x2="21" y2="0" gradientUnits="userSpaceOnUse">
<stop stop-color="#161616"/>
<stop offset="1" stop-color="#0D0D0D"/>
</linearGradient>
</defs>
</svg>
