<svg width="42" height="42" viewBox="0 0 42 42" fill="none" xmlns="http://www.w3.org/2000/svg">
<path d="M9.18001 29.556V25.476L16.14 20.484C17.196 19.74 17.604 19.092 17.604 18.444C17.604 17.7 17.052 17.196 16.092 17.196C15.132 17.196 14.268 17.772 12.852 19.284L9.15601 16.14C11.1 13.764 13.068 12.444 16.572 12.444C20.412 12.444 23.172 14.748 23.172 17.94V17.988C23.172 20.532 21.804 21.948 19.788 23.244L16.788 25.164H23.34V29.556H9.18001Z" fill="#828282"/>
<path d="M27.324 29.556V17.556L24.588 18.156L23.58 14.004L28.596 12.636H32.844V29.556H27.324Z" fill="#828282"/>
</svg>
