<svg width="62" height="62" viewBox="0 0 62 62" fill="none" xmlns="http://www.w3.org/2000/svg">
<path d="M17.0001 41.0126C16.5042 41.0126 16.0889 40.8446 15.7541 40.5086C15.4192 40.1726 15.2512 39.7573 15.2501 39.2626C15.2489 38.768 15.4169 38.3526 15.7541 38.0166C16.0912 37.6806 16.5066 37.5126 17.0001 37.5126H45.0001C45.4959 37.5126 45.9118 37.6806 46.2478 38.0166C46.5838 38.3526 46.7512 38.768 46.7501 39.2626C46.7489 39.7573 46.5809 40.1732 46.2461 40.5104C45.9112 40.8475 45.4959 41.015 45.0001 41.0126H17.0001ZM17.0001 32.2626C16.5042 32.2626 16.0889 32.0946 15.7541 31.7586C15.4192 31.4226 15.2512 31.0073 15.2501 30.5126C15.2489 30.018 15.4169 29.6026 15.7541 29.2666C16.0912 28.9306 16.5066 28.7626 17.0001 28.7626H45.0001C45.4959 28.7626 45.9118 28.9306 46.2478 29.2666C46.5838 29.6026 46.7512 30.018 46.7501 30.5126C46.7489 31.0073 46.5809 31.4232 46.2461 31.7604C45.9112 32.0976 45.4959 32.265 45.0001 32.2626H17.0001ZM17.0001 23.5126C16.5042 23.5126 16.0889 23.3446 15.7541 23.0086C15.4192 22.6726 15.2512 22.2573 15.2501 21.7626C15.2489 21.268 15.4169 20.8526 15.7541 20.5166C16.0912 20.1806 16.5066 20.0126 17.0001 20.0126H45.0001C45.4959 20.0126 45.9118 20.1806 46.2478 20.5166C46.5838 20.8526 46.7512 21.268 46.7501 21.7626C46.7489 22.2573 46.5809 22.6732 46.2461 23.0104C45.9112 23.3476 45.4959 23.515 45.0001 23.5126H17.0001Z" fill="white"/>
</svg>
