<svg width="42" height="42" viewBox="0 0 42 42" fill="none" xmlns="http://www.w3.org/2000/svg">
<g filter="url(#filter0_ii_19_631)">
<rect width="42" height="42" rx="8" fill="white"/>
<rect width="42" height="42" rx="8" fill="url(#paint0_linear_19_631)"/>
<path d="M33.6811 30.6077C33.2561 30.1827 32.5681 30.1827 32.1442 30.6077H32.1431L29.0389 27.5034C30.0628 26.285 30.8084 24.9362 30.9203 23.796C30.978 23.1982 30.5421 22.6667 29.9443 22.608C29.3367 22.5471 28.815 22.9873 28.7563 23.584C28.7433 23.7253 28.702 23.8797 28.6498 24.0383L25.6108 21.0004L32.1443 14.4669C32.2627 14.3473 32.3529 14.2017 32.4062 14.0419L33.9431 9.43118C34.0735 9.03989 33.9714 8.60947 33.6811 8.31819C33.3899 8.02692 32.9583 7.92583 32.5682 8.05626L27.9574 9.5932C27.7976 9.64644 27.6519 9.73668 27.5324 9.85625L20.9989 16.3886L14.4666 9.8562C14.3481 9.73662 14.2024 9.64644 14.0416 9.59315L9.43082 8.05626C9.04279 7.92583 8.6091 8.02585 8.3189 8.31819C8.02762 8.60947 7.92542 9.03989 8.05585 9.43118L9.59273 14.0419C9.64598 14.2017 9.73621 14.3473 9.85579 14.4669L16.3882 20.9992L13.3361 24.0524C13.2894 23.9013 13.2535 23.7557 13.2459 23.6242C13.21 23.0252 12.6915 22.5699 12.0948 22.6046C11.4948 22.6415 11.0405 23.1567 11.0764 23.7557C11.1449 24.8893 11.8992 26.2642 12.9546 27.5077L9.85579 30.6076C9.43082 30.1827 8.7428 30.1827 8.3189 30.6076C7.89393 31.0315 7.89393 31.7196 8.3189 32.1445L9.85579 33.6814C10.0677 33.8934 10.346 33.9999 10.6243 33.9999C10.9025 33.9999 11.1797 33.8934 11.3927 33.6814C11.8166 33.2564 11.8166 32.5684 11.3927 32.1445L14.4959 29.0403C15.7144 30.0642 17.0643 30.8087 18.2045 30.9195C18.2414 30.9239 18.2762 30.925 18.311 30.925C18.8642 30.925 19.3371 30.5054 19.3914 29.9435C19.4501 29.3468 19.0121 28.8142 18.4153 28.7566C18.2741 28.7425 18.1197 28.7022 17.961 28.649L21 25.611L24.0521 28.6631C23.9011 28.7098 23.7554 28.7457 23.6239 28.7533C23.0239 28.7892 22.5685 29.3044 22.6043 29.9044C22.6391 30.4805 23.1185 30.925 23.688 30.925C23.7108 30.925 23.7326 30.925 23.7554 30.9228C24.8891 30.8543 26.2629 30.1 27.5063 29.0446L30.6062 32.1445C30.1823 32.5684 30.1823 33.2564 30.6062 33.6814C30.8193 33.8934 31.0975 33.9999 31.3758 33.9999C31.653 33.9999 31.9312 33.8934 32.1443 33.6814L33.6811 32.1445C34.105 31.7196 34.105 31.0316 33.6811 30.6077ZM16.0458 27.4904C15.7578 27.2567 15.4752 27.0035 15.2078 26.7372C15.2002 26.7296 15.1926 26.7209 15.185 26.7133C14.9448 26.472 14.7144 26.2176 14.5013 25.96L17.9251 22.5373L19.4631 24.0742L16.0458 27.4904ZM23.1923 18.582L22.5369 17.9255L28.8878 11.5746L31.1942 10.8062L30.4247 13.1115L24.0738 19.4635L23.1923 18.582Z" fill="black"/>
<path d="M33.6811 30.6077C33.2561 30.1827 32.5681 30.1827 32.1442 30.6077H32.1431L29.0389 27.5034C30.0628 26.285 30.8084 24.9362 30.9203 23.796C30.978 23.1982 30.5421 22.6667 29.9443 22.608C29.3367 22.5471 28.815 22.9873 28.7563 23.584C28.7433 23.7253 28.702 23.8797 28.6498 24.0383L25.6108 21.0004L32.1443 14.4669C32.2627 14.3473 32.3529 14.2017 32.4062 14.0419L33.9431 9.43118C34.0735 9.03989 33.9714 8.60947 33.6811 8.31819C33.3899 8.02692 32.9583 7.92583 32.5682 8.05626L27.9574 9.5932C27.7976 9.64644 27.6519 9.73668 27.5324 9.85625L20.9989 16.3886L14.4666 9.8562C14.3481 9.73662 14.2024 9.64644 14.0416 9.59315L9.43082 8.05626C9.04279 7.92583 8.6091 8.02585 8.3189 8.31819C8.02762 8.60947 7.92542 9.03989 8.05585 9.43118L9.59273 14.0419C9.64598 14.2017 9.73621 14.3473 9.85579 14.4669L16.3882 20.9992L13.3361 24.0524C13.2894 23.9013 13.2535 23.7557 13.2459 23.6242C13.21 23.0252 12.6915 22.5699 12.0948 22.6046C11.4948 22.6415 11.0405 23.1567 11.0764 23.7557C11.1449 24.8893 11.8992 26.2642 12.9546 27.5077L9.85579 30.6076C9.43082 30.1827 8.7428 30.1827 8.3189 30.6076C7.89393 31.0315 7.89393 31.7196 8.3189 32.1445L9.85579 33.6814C10.0677 33.8934 10.346 33.9999 10.6243 33.9999C10.9025 33.9999 11.1797 33.8934 11.3927 33.6814C11.8166 33.2564 11.8166 32.5684 11.3927 32.1445L14.4959 29.0403C15.7144 30.0642 17.0643 30.8087 18.2045 30.9195C18.2414 30.9239 18.2762 30.925 18.311 30.925C18.8642 30.925 19.3371 30.5054 19.3914 29.9435C19.4501 29.3468 19.0121 28.8142 18.4153 28.7566C18.2741 28.7425 18.1197 28.7022 17.961 28.649L21 25.611L24.0521 28.6631C23.9011 28.7098 23.7554 28.7457 23.6239 28.7533C23.0239 28.7892 22.5685 29.3044 22.6043 29.9044C22.6391 30.4805 23.1185 30.925 23.688 30.925C23.7108 30.925 23.7326 30.925 23.7554 30.9228C24.8891 30.8543 26.2629 30.1 27.5063 29.0446L30.6062 32.1445C30.1823 32.5684 30.1823 33.2564 30.6062 33.6814C30.8193 33.8934 31.0975 33.9999 31.3758 33.9999C31.653 33.9999 31.9312 33.8934 32.1443 33.6814L33.6811 32.1445C34.105 31.7196 34.105 31.0316 33.6811 30.6077ZM16.0458 27.4904C15.7578 27.2567 15.4752 27.0035 15.2078 26.7372C15.2002 26.7296 15.1926 26.7209 15.185 26.7133C14.9448 26.472 14.7144 26.2176 14.5013 25.96L17.9251 22.5373L19.4631 24.0742L16.0458 27.4904ZM23.1923 18.582L22.5369 17.9255L28.8878 11.5746L31.1942 10.8062L30.4247 13.1115L24.0738 19.4635L23.1923 18.582Z" fill="#F34950"/>
</g>
<defs>
<filter id="filter0_ii_19_631" x="0" y="0" width="42" height="42" filterUnits="userSpaceOnUse" color-interpolation-filters="sRGB">
<feFlood flood-opacity="0" result="BackgroundImageFix"/>
<feBlend mode="normal" in="SourceGraphic" in2="BackgroundImageFix" result="shape"/>
<feColorMatrix in="SourceAlpha" type="matrix" values="0 0 0 0 0 0 0 0 0 0 0 0 0 0 0 0 0 0 127 0" result="hardAlpha"/>
<feOffset dy="1"/>
<feComposite in2="hardAlpha" operator="arithmetic" k2="-1" k3="1"/>
<feColorMatrix type="matrix" values="0 0 0 0 0.144231 0 0 0 0 0.144231 0 0 0 0 0.144231 0 0 0 0.34 0"/>
<feBlend mode="normal" in2="shape" result="effect1_innerShadow_19_631"/>
<feColorMatrix in="SourceAlpha" type="matrix" values="0 0 0 0 0 0 0 0 0 0 0 0 0 0 0 0 0 0 127 0" result="hardAlpha"/>
<feOffset dy="-1"/>
<feComposite in2="hardAlpha" operator="arithmetic" k2="-1" k3="1"/>
<feColorMatrix type="matrix" values="0 0 0 0 0.139423 0 0 0 0 0.139423 0 0 0 0 0.139423 0 0 0 0.39 0"/>
<feBlend mode="normal" in2="effect1_innerShadow_19_631" result="effect2_innerShadow_19_631"/>
</filter>
<linearGradient id="paint0_linear_19_631" x1="21" y1="42" x2="21" y2="0" gradientUnits="userSpaceOnUse">
<stop stop-color="#161616"/>
<stop offset="1" stop-color="#0D0D0D"/>
</linearGradient>
</defs>
</svg>
