<svg width="32" height="32" viewBox="0 0 32 32" fill="none" xmlns="http://www.w3.org/2000/svg">
<g filter="url(#filter0_ii_9_111)">
<path d="M2.66668 16C2.66668 8.63599 8.63601 2.66666 16 2.66666C23.364 2.66666 29.3333 8.63599 29.3333 16C29.3333 23.364 23.364 29.3333 16 29.3333C13.7 29.3333 11.5347 28.7507 9.64468 27.724L4.15334 29.2853C3.27401 29.5353 2.46201 28.7227 2.71201 27.844L4.27334 22.352C3.21514 20.4023 2.66274 18.2183 2.66668 16ZM10.6667 13.5C10.6667 13.96 11.04 14.3333 11.5 14.3333H20.5C20.6094 14.3333 20.7178 14.3118 20.8189 14.2699C20.92 14.228 21.0119 14.1666 21.0893 14.0892C21.1667 14.0119 21.228 13.92 21.2699 13.8189C21.3118 13.7178 21.3333 13.6094 21.3333 13.5C21.3333 13.3906 21.3118 13.2822 21.2699 13.1811C21.228 13.08 21.1667 12.9881 21.0893 12.9107C21.0119 12.8334 20.92 12.772 20.8189 12.7301C20.7178 12.6882 20.6094 12.6667 20.5 12.6667H11.5C11.04 12.6667 10.6667 13.04 10.6667 13.5ZM11.5 17.6667C11.279 17.6667 11.067 17.7545 10.9108 17.9107C10.7545 18.067 10.6667 18.279 10.6667 18.5C10.6667 18.721 10.7545 18.933 10.9108 19.0892C11.067 19.2455 11.279 19.3333 11.5 19.3333H17.8333C18.0544 19.3333 18.2663 19.2455 18.4226 19.0892C18.5789 18.933 18.6667 18.721 18.6667 18.5C18.6667 18.279 18.5789 18.067 18.4226 17.9107C18.2663 17.7545 18.0544 17.6667 17.8333 17.6667H11.5Z" fill="#F75154"/>
</g>
<defs>
<filter id="filter0_ii_9_111" x="2.6661" y="2.66666" width="26.6672" height="26.6667" filterUnits="userSpaceOnUse" color-interpolation-filters="sRGB">
<feFlood flood-opacity="0" result="BackgroundImageFix"/>
<feBlend mode="normal" in="SourceGraphic" in2="BackgroundImageFix" result="shape"/>
<feColorMatrix in="SourceAlpha" type="matrix" values="0 0 0 0 0 0 0 0 0 0 0 0 0 0 0 0 0 0 127 0" result="hardAlpha"/>
<feOffset dy="1"/>
<feComposite in2="hardAlpha" operator="arithmetic" k2="-1" k3="1"/>
<feColorMatrix type="matrix" values="0 0 0 0 0.94902 0 0 0 0 0.309804 0 0 0 0 0.317647 0 0 0 1 0"/>
<feBlend mode="normal" in2="shape" result="effect1_innerShadow_9_111"/>
<feColorMatrix in="SourceAlpha" type="matrix" values="0 0 0 0 0 0 0 0 0 0 0 0 0 0 0 0 0 0 127 0" result="hardAlpha"/>
<feOffset dy="-1"/>
<feComposite in2="hardAlpha" operator="arithmetic" k2="-1" k3="1"/>
<feColorMatrix type="matrix" values="0 0 0 0 1 0 0 0 0 0.456731 0 0 0 0 0.463397 0 0 0 1 0"/>
<feBlend mode="normal" in2="effect1_innerShadow_9_111" result="effect2_innerShadow_9_111"/>
</filter>
</defs>
</svg>
