<svg width="70" height="48" viewBox="0 0 70 48" fill="none" xmlns="http://www.w3.org/2000/svg">
<rect width="70" height="48" rx="6" fill="#333232"/>
<rect width="70" height="48" rx="6" fill="url(#paint0_linear_55_2561)"/>
<path d="M62.9868 21.1459L63 21.1313H60.9077L59.5864 25.7115H59.5163L57.9993 21.1313H55.5128L58.5045 28.69L57.2547 30.9939V31.0495H59.2068L62.9868 21.1459Z" fill="#333232"/>
<path d="M39.7911 21.1313H37.5718V28.6622H39.7911V21.1313Z" fill="#333232"/>
<path d="M55.0763 26.7789V23.6325C55.0763 21.9184 54.0645 20.9767 52.2803 20.9767C51.1416 20.9767 50.3559 21.1738 48.9223 21.6089L49.3151 23.3375C50.6218 22.7476 51.1971 22.495 51.8015 22.495C52.5316 22.495 52.8557 23.0148 52.8557 23.8163V23.8718C50.3123 24.3493 49.5254 24.6165 49.0347 25.1085C48.6696 25.4735 48.5149 25.9933 48.5149 26.5977C48.5149 28.0446 49.6391 28.817 50.6919 28.817C51.4788 28.817 52.111 28.5221 52.9681 27.8753L53.1228 28.6623H55.3421L55.0763 26.7789ZM52.857 26.8358C52.2671 27.1585 51.9298 27.2855 51.537 27.2855C51.0027 27.2855 50.6654 26.9337 50.6654 26.3729C50.6654 26.1626 50.7078 25.951 50.8757 25.783C51.1429 25.5158 51.6627 25.3188 52.857 25.0384V26.8358Z" fill="#333232"/>
<path d="M45.3129 20.9767C44.4982 20.9767 43.866 21.2862 43.1491 21.876V21.1314H40.9298V31.0496H43.1491V28.5909C43.571 28.7033 43.9638 28.7602 44.4413 28.7602C46.4225 28.7602 48.2067 27.2987 48.2067 24.6998C48.2067 22.3681 46.9146 20.9767 45.3129 20.9767ZM43.907 27.3688C43.6544 27.3688 43.415 27.341 43.1478 27.2564V23.1828C43.612 22.8601 43.9903 22.7053 44.4678 22.7053C45.297 22.7053 45.957 23.3653 45.957 24.7712C45.9583 26.5686 44.9889 27.3688 43.907 27.3688Z" fill="#333232"/>
<path d="M18.7592 17.2522H9.24312C8.00385 17.2522 7 18.2653 7 19.5138V29.1106C7 30.3591 8.00385 31.3722 9.24312 31.3722H18.7592C19.9985 31.3722 21.001 30.3591 21.001 29.1106V19.5138C21.0023 18.264 19.9985 17.2522 18.7592 17.2522Z" fill="#333232"/>
<path d="M18.5277 26.1189C17.9683 25.9297 17.2157 25.6401 16.3785 25.3346C16.8811 24.4524 17.2831 23.4485 17.5477 22.3574H14.7874V21.3549H18.168V20.7954H14.7874V19.1237H13.4079C13.1659 19.1237 13.1659 19.3644 13.1659 19.3644V20.7941H9.747V21.3536H13.1659V22.3561H10.3422V22.9155H15.8177C15.618 23.6112 15.3482 24.2659 15.0294 24.8598C13.2532 24.2686 11.3566 23.7898 10.1663 24.0847C9.40444 24.2738 8.91376 24.6111 8.62544 24.9656C7.30284 26.5884 8.25114 29.0537 11.0445 29.0537C12.6964 29.0537 14.2875 28.1252 15.5201 26.595C17.3599 27.4864 21.001 29.018 21.001 29.018V26.8357C21.0023 26.8357 20.5447 26.7987 18.5277 26.1189ZM10.7839 28.1107C8.6056 28.1107 7.96149 26.3807 9.03809 25.4338C9.39783 25.1137 10.0538 24.9576 10.403 24.9232C11.6965 24.7949 12.8948 25.2922 14.3086 25.9879C13.3154 27.2947 12.0496 28.1107 10.7839 28.1107Z" fill="#333232"/>
<path d="M18.5277 26.1189C17.9683 25.9297 17.2157 25.6401 16.3785 25.3346C16.8811 24.4524 17.2831 23.4485 17.5477 22.3574H14.7874V21.3549H18.168V20.7954H14.7874V19.1237H13.4079C13.1659 19.1237 13.1659 19.3644 13.1659 19.3644V20.7941H9.747V21.3536H13.1659V22.3561H10.3422V22.9155H15.8177C15.618 23.6112 15.3482 24.2659 15.0294 24.8598C13.2532 24.2686 11.3566 23.7898 10.1663 24.0847C9.40444 24.2738 8.91376 24.6111 8.62544 24.9656C7.30284 26.5884 8.25114 29.0537 11.0445 29.0537C12.6964 29.0537 14.2875 28.1252 15.5201 26.595C17.3599 27.4864 21.001 29.018 21.001 29.018V26.8357C21.0023 26.8357 20.5447 26.7987 18.5277 26.1189ZM10.7839 28.1107C8.6056 28.1107 7.96149 26.3807 9.03809 25.4338C9.39783 25.1137 10.0538 24.9576 10.403 24.9232C11.6965 24.7949 12.8948 25.2922 14.3086 25.9879C13.3154 27.2947 12.0496 28.1107 10.7839 28.1107Z" fill="url(#paint1_linear_55_2561)"/>
<path d="M29.9431 18.7573H26.9646L23.6356 28.6622H25.687L26.2491 26.7233H29.7751L30.3094 28.6622H32.9361L29.9431 18.7573ZM26.712 25.1071L28.0319 20.5415H28.0875L29.3373 25.1071H26.712Z" fill="#333232"/>
<path d="M36.0534 18.4055H33.8341V28.6609H36.0534V18.4055Z" fill="#333232"/>
<path d="M37.4025 19.3194C37.4025 20.0494 37.9368 20.5414 38.6814 20.5414C39.426 20.5414 39.9604 20.0494 39.9604 19.3194C39.9604 18.6025 39.426 18.0973 38.6814 18.0973C37.9368 18.0973 37.4025 18.6025 37.4025 19.3194Z" fill="#333232"/>
<defs>
<linearGradient id="paint0_linear_55_2561" x1="35" y1="48" x2="35" y2="0" gradientUnits="userSpaceOnUse">
<stop stop-color="#161616"/>
<stop offset="1" stop-color="#0D0D0D"/>
</linearGradient>
<linearGradient id="paint1_linear_55_2561" x1="14.5189" y1="29.0537" x2="14.5189" y2="19.1237" gradientUnits="userSpaceOnUse">
<stop stop-color="#161616"/>
<stop offset="1" stop-color="#0D0D0D"/>
</linearGradient>
</defs>
</svg>
