<svg width="42" height="42" viewBox="0 0 42 42" fill="none" xmlns="http://www.w3.org/2000/svg">
<g filter="url(#filter0_ii_19_658)">
<rect width="42" height="42" rx="8" fill="white"/>
<rect width="42" height="42" rx="8" fill="url(#paint0_linear_19_658)"/>
<path d="M9.22395 29.112V25.032L16.184 20.04C17.24 19.296 17.648 18.648 17.648 18C17.648 17.256 17.096 16.752 16.136 16.752C15.176 16.752 14.312 17.328 12.896 18.84L9.19995 15.696C11.144 13.32 13.112 12 16.616 12C20.456 12 23.216 14.304 23.216 17.496V17.544C23.216 20.088 21.848 21.504 19.832 22.8L16.832 24.72H23.384V29.112H9.22395Z" fill="#F34950"/>
<path d="M27.368 29.112V17.112L24.632 17.712L23.624 13.56L28.64 12.192H32.888V29.112H27.368Z" fill="#F34950"/>
</g>
<defs>
<filter id="filter0_ii_19_658" x="0" y="0" width="42" height="42" filterUnits="userSpaceOnUse" color-interpolation-filters="sRGB">
<feFlood flood-opacity="0" result="BackgroundImageFix"/>
<feBlend mode="normal" in="SourceGraphic" in2="BackgroundImageFix" result="shape"/>
<feColorMatrix in="SourceAlpha" type="matrix" values="0 0 0 0 0 0 0 0 0 0 0 0 0 0 0 0 0 0 127 0" result="hardAlpha"/>
<feOffset dy="1"/>
<feComposite in2="hardAlpha" operator="arithmetic" k2="-1" k3="1"/>
<feColorMatrix type="matrix" values="0 0 0 0 0.144231 0 0 0 0 0.144231 0 0 0 0 0.144231 0 0 0 0.34 0"/>
<feBlend mode="normal" in2="shape" result="effect1_innerShadow_19_658"/>
<feColorMatrix in="SourceAlpha" type="matrix" values="0 0 0 0 0 0 0 0 0 0 0 0 0 0 0 0 0 0 127 0" result="hardAlpha"/>
<feOffset dy="-1"/>
<feComposite in2="hardAlpha" operator="arithmetic" k2="-1" k3="1"/>
<feColorMatrix type="matrix" values="0 0 0 0 0.139423 0 0 0 0 0.139423 0 0 0 0 0.139423 0 0 0 0.39 0"/>
<feBlend mode="normal" in2="effect1_innerShadow_19_658" result="effect2_innerShadow_19_658"/>
</filter>
<linearGradient id="paint0_linear_19_658" x1="21" y1="42" x2="21" y2="0" gradientUnits="userSpaceOnUse">
<stop stop-color="#161616"/>
<stop offset="1" stop-color="#0D0D0D"/>
</linearGradient>
</defs>
</svg>
