<svg width="70" height="48" viewBox="0 0 70 48" fill="none" xmlns="http://www.w3.org/2000/svg">
<rect width="70" height="48" rx="6" fill="#333232"/>
<rect width="70" height="48" rx="6" fill="url(#paint0_linear_2044_2191)"/>
<path fill-rule="evenodd" clip-rule="evenodd" d="M54.9941 28.6378H55.0293L57.9482 21.3117H60L53.6934 36.0001H51.7471L54.0918 30.8615L49.9531 21.3117H52.0049L54.9941 28.6378ZM45.123 20.9787C46.5181 20.9787 47.6208 21.3592 48.4297 22.1085C49.2384 22.8578 49.6367 23.9047 49.6367 25.2247V31.5158H47.8311V30.1007H47.749C46.9636 31.2662 45.9321 31.8488 44.6309 31.8488C43.529 31.8487 42.5911 31.5158 41.8525 30.8497C41.1259 30.2313 40.7159 29.3159 40.7393 28.3527C40.7393 27.2942 41.1375 26.4615 41.9229 25.8312C42.7082 25.2009 43.7633 24.8918 45.0762 24.8917C46.2014 24.8917 47.116 25.1056 47.8428 25.5099V25.0695C47.8427 24.4155 47.5616 23.7974 47.0693 23.3693C46.5652 22.9173 45.9202 22.6671 45.252 22.6671C44.1971 22.6672 43.3644 23.1198 42.7549 24.0236L41.0908 22.965C41.9817 21.6449 43.3296 20.9787 45.123 20.9787ZM36.1787 16.6017C37.386 16.5779 38.5583 17.0415 39.4141 17.8976C41.1256 19.5151 41.2311 22.2391 39.625 23.9874L39.4141 24.2013C38.5348 25.0457 37.4565 25.4738 36.1787 25.4738H33.0605V31.5158H31.1729V16.6017H36.1787ZM45.3701 26.4376C44.6081 26.4377 43.9631 26.6276 43.4473 26.9962C42.9432 27.3649 42.6856 27.8289 42.6855 28.3878C42.6855 28.8874 42.9197 29.3514 43.3066 29.6369C43.7287 29.9699 44.2448 30.1488 44.7725 30.1369C45.5697 30.1368 46.3318 29.8151 46.8945 29.2443C47.5159 28.6496 47.832 27.9475 47.832 27.1388C47.2458 26.6633 46.4251 26.4257 45.3701 26.4376ZM33.0605 23.6427H36.2266C36.9299 23.6664 37.6102 23.3806 38.0908 22.8693C39.0753 21.8347 39.0518 20.1701 38.0322 19.171C37.5516 18.6954 36.9065 18.4328 36.2266 18.4328H33.0605V23.6427Z" fill="#333232"/>
<path d="M26.5443 24.1659C26.5443 23.5831 26.4974 23.0003 26.4036 22.4294H18.4436V25.7239H23.0039C22.8163 26.7825 22.2067 27.734 21.3158 28.3286V30.4695H24.0355C25.6299 28.9828 26.5443 26.7825 26.5443 24.1659Z" fill="#333232"/>
<path d="M18.444 32.539C20.7183 32.539 22.6408 31.7778 24.0359 30.4695L21.3161 28.3287C20.5541 28.852 19.5811 29.1493 18.444 29.1493C16.24 29.1493 14.376 27.6388 13.7078 25.6169H10.906V27.8291C12.3362 30.7193 15.2553 32.539 18.444 32.539Z" fill="#333232"/>
<path d="M13.708 25.6169C13.3563 24.5584 13.3563 23.4048 13.708 22.3343V20.134H10.9058C9.69808 22.5484 9.69808 25.4029 10.9058 27.8172L13.708 25.6169Z" fill="#333232"/>
<path d="M18.444 18.802C19.6515 18.7782 20.812 19.2421 21.6795 20.0865L24.0945 17.6365C22.5588 16.1855 20.5424 15.3886 18.444 15.4124C15.2553 15.4124 12.3362 17.244 10.906 20.1341L13.7078 22.3463C14.376 20.3125 16.24 18.802 18.444 18.802Z" fill="#333232"/>
<defs>
<linearGradient id="paint0_linear_2044_2191" x1="35" y1="48" x2="35" y2="0" gradientUnits="userSpaceOnUse">
<stop stop-color="#161616"/>
<stop offset="1" stop-color="#0D0D0D"/>
</linearGradient>
</defs>
</svg>
