<svg width="50" height="42" viewBox="0 0 50 42" fill="none" xmlns="http://www.w3.org/2000/svg">
<path d="M0.267436 30.931C0.267436 30.931 -0.334295 23.9897 0.267436 19.6096C0.847945 15.3839 3.16177 9.07794 3.16177 9.07794C3.41418 8.59776 3.52108 7.73609 3.52108 7.73609C4.40248 4.43705 6.39357 1.85494 8.94844 0.695191C10.1395 0.154616 10.5544 0.0702752 12.2934 0.0108503C14.6537 -0.0696609 16.089 0.288802 17.8081 1.39104C18.89 2.08305 20.0731 3.20063 20.492 3.92139C20.9406 4.69583 20.9009 4.00957 20.4464 3.14312L19.966 2.22491L21.4885 2.35526C22.3283 2.42426 23.3427 2.55462 23.7457 2.6428C24.3849 2.78273 24.5357 2.74248 24.9367 2.3265C26.1933 1.02682 28.7045 0.580176 30.6857 1.30094C32.0018 1.78209 33.447 2.94567 34.116 4.06516C34.7274 5.08689 35.3349 7.03066 35.5135 8.53353L35.6545 9.71436L34.2967 9.78912C32.9765 9.86005 32.919 9.84471 32.1984 9.19487L31.4579 8.5297L32.5458 7.42746C33.7349 6.22363 33.7249 6.24471 33.4272 5.70989C33.0798 5.08113 32.4207 5.27666 31.307 6.34056L30.2589 7.33928L29.2107 6.34056C28.0971 5.27666 27.438 5.08113 27.0906 5.70989C26.7928 6.24471 26.7809 6.22171 27.9938 7.45047L29.1035 8.57379L28.4405 9.15078C27.97 9.55909 27.6484 9.69519 27.3308 9.62043C26.4276 9.40765 26.9179 9.73162 27.9263 10.0134C29.6355 10.4926 31.5194 10.6997 35.9165 10.8894C39.4699 11.0428 40.3473 11.1444 41.866 11.5719C46.2948 12.8179 48.6353 15.0626 49.6517 19.046C50.0785 20.7118 50.14 26.0677 49.7489 27.3386C49.4393 28.3489 48.6551 28.8856 46.4377 29.6006C43.5732 30.5246 41.2407 30.8466 36.6113 30.9597C31.5572 31.0805 29.848 30.883 25.2623 29.6447C22.2588 28.8319 22.1794 28.8223 19.0429 28.8223C15.5232 28.8223 14.8304 28.9661 12.345 30.2102C11.1182 30.8236 9.61346 32.1137 9.61346 32.5489C9.61346 33.0051 10.1256 32.8824 11.9341 31.9968C14.1058 30.931 16.3689 30.26 17.7962 30.26C18.7213 30.26 18.753 30.2792 19.158 31.1131C20.0394 32.9227 20.7501 32.8326 22.0206 30.7469C22.1953 30.4613 22.3302 30.4498 23.1481 30.6473C24.0156 30.8581 24.0851 30.9233 24.2062 31.6172C24.361 32.4971 25.0717 33.5859 25.5521 33.676C25.8995 33.7393 26.7412 33.0262 27.2931 32.1981C27.5789 31.7706 27.6683 31.7495 28.5735 31.9105C29.4946 32.0715 29.5542 32.1214 29.703 32.8057C29.9155 33.7949 30.38 34.6153 30.8703 34.8684C31.448 35.1674 32.119 34.6958 32.7939 33.515L33.3358 32.5661L34.656 32.5623C35.9503 32.5604 35.982 32.5719 36.1885 33.1431C36.9984 35.3898 38.2332 35.4013 39.2734 33.1757C39.6228 32.4243 39.6803 32.3898 40.8535 32.2249C41.866 32.083 42.1042 32.1041 42.269 32.3514C42.3781 32.5144 42.7593 32.9399 43.1146 33.2965C43.7141 33.8965 43.7955 33.9252 44.2064 33.6741C44.4506 33.5246 44.8735 32.9553 45.1474 32.4089C45.5027 31.6978 45.8085 31.3604 46.2194 31.2204C47.077 30.931 47.0948 30.9521 46.9062 31.9374C46.0268 36.5246 43.1464 39.5763 38.5965 40.7438C36.79 41.2076 32.4822 41.1712 28.1745 40.6556C23.0072 40.0383 21.5124 39.9789 18.0463 40.2588C13.2879 40.6441 10.4055 40.5789 8.8194 40.0537C5.3871 38.915 2.33596 35.9016 0.745861 32.0811L0.267436 30.931ZM10.9038 35.0677C10.9038 34.9182 10.5306 34.6767 10.076 34.531C9.01991 34.1898 8.27945 33.4747 8.02138 32.5431C7.7653 31.6268 7.47943 31.437 7.31467 32.0754C7.00896 33.2485 7.73949 34.6709 8.90278 35.1674C9.67896 35.5009 10.9038 35.4396 10.9038 35.0677ZM38.787 20.7118C38.7533 18.0396 36.0059 15.7297 34.5408 17.1425C34.1716 17.499 34.1299 18.3942 34.4674 18.7201C34.5984 18.8466 34.914 18.9501 35.1681 18.9501C35.8014 18.9501 37.0083 19.4562 37.3399 19.8626C37.4907 20.0466 37.7925 20.522 38.0128 20.9227C38.4873 21.7795 38.7989 21.6952 38.787 20.7118ZM45.9911 19.6096C46.0665 18.9636 46.2611 18.561 46.7137 18.1105C47.4144 17.4108 47.472 17.1176 47.0035 16.6172C46.1975 15.7565 45.3102 16.5156 45.1871 18.17C45.1037 19.2894 45.4352 20.7636 45.733 20.5853C45.8184 20.5335 45.9355 20.0946 45.9911 19.6096ZM12.2199 16.0364L13.7723 14.4645L15.4398 16.0364C16.3589 16.9009 17.2126 17.6083 17.3396 17.6083C17.689 17.6083 18.5466 16.7131 18.5466 16.3489C18.5466 16.1744 17.8637 15.3521 17.0279 14.5239L15.5113 13.0172L17.0279 11.4032C17.8637 10.5156 18.5466 9.67027 18.5466 9.52458C18.5466 9.01468 17.9352 8.40701 17.421 8.40701C17.0557 8.40701 16.4761 8.81724 15.3704 9.85621L13.8259 11.3073L12.2199 9.85621C11.3366 9.05877 10.4631 8.40701 10.2785 8.40701C10.0939 8.40701 9.77823 8.54887 9.57972 8.72331C8.90278 9.31564 9.13306 9.86005 10.741 11.4856L12.2656 13.0268L10.741 14.5067C9.75639 15.4632 9.21643 16.138 9.21643 16.414C9.21643 16.9163 9.86756 17.6083 10.338 17.6083C10.5187 17.6083 11.3663 16.9009 12.2199 16.0364Z" fill="#f34950"/>
</svg>
