<svg width="42" height="42" viewBox="0 0 42 42" fill="none" xmlns="http://www.w3.org/2000/svg">
<path d="M34.9 15.3C34.1 13.4 33 11.8 31.7 10.4C30.3 9 28.7 7.9 26.9 7.2C25 6.4 23 6 21 6C19 6 17 6.4 15.3 7.1C13.4 7.9 11.8 9 10.4 10.4C9 11.8 7.9 13.4 7.2 15.2C6.4 17.1 6 19 6 21C6 23 6.4 24.9 7.1 26.7C7.9 28.5 9 30.1 10.3 31.5C11.7 32.9 13.3 34 15.1 34.7C17 35.6 19 36 21 36C23 36 25 35.6 26.7 34.9C28.5 34.1 30.1 33 31.5 31.7C32.9 30.3 34 28.7 34.7 26.9C35.6 24.9 36 23 36 21C36 19 35.6 17.1 34.9 15.3ZM32.6 15.1L29.8 16.2C29.5 15.6 29.1 15.1 28.7 14.6L30.8 12.5C31.5 13.3 32.1 14.2 32.6 15.1ZM26.9 9.4C27.8 9.9 28.7 10.4 29.5 11.1L27.4 13.2C26.9 12.8 26.4 12.4 25.8 12.1L26.9 9.4ZM22 8.1C23.1 8.2 24.1 8.4 25 8.7L23.8 11.5C23.2 11.3 22.6 11.2 21.9 11.1V8.1H22ZM20 8.1V11.1C19.4 11.2 18.7 11.3 18.1 11.5L17 8.6C17.9 8.3 18.9 8.1 20 8.1ZM15.1 9.4L16.2 12.2C15.6 12.5 15.1 12.9 14.6 13.3L12.6 11.1C13.3 10.5 14.2 9.9 15.1 9.4ZM11.1 12.6L13.2 14.7C12.8 15.2 12.4 15.7 12.1 16.3L9.3 15.2C9.9 14.2 10.5 13.3 11.1 12.6ZM8.6 17L11.4 18.2C11.2 18.8 11.1 19.4 11 20.1H8C8.1 18.9 8.3 17.9 8.6 17ZM8.1 22H11.1C11.2 22.6 11.3 23.3 11.5 23.9L8.6 25C8.3 24.1 8.1 23.1 8.1 22ZM9.4 26.9L12.2 25.8C12.5 26.4 12.9 26.9 13.3 27.4L11.2 29.5C10.5 28.7 9.9 27.8 9.4 26.9ZM15.1 32.6C14.2 32.1 13.3 31.6 12.5 30.9L14.6 28.8C15.1 29.2 15.6 29.6 16.2 29.9L15.1 32.6ZM20 33.9C18.9 33.8 17.9 33.6 17 33.3L18.2 30.5C18.8 30.7 19.4 30.8 20.1 30.9V33.9H20ZM19 26C19 25.3 19.4 24.6 20 24.3V22.7C19.7 22.5 19.5 22.3 19.3 22H17.7C17.4 22.6 16.7 23 16 23C14.9 23 14 22.1 14 21C14 19.9 14.9 19 16 19C16.7 19 17.4 19.4 17.7 20H19.3C19.5 19.7 19.7 19.5 20 19.3V17.7C19.4 17.4 19 16.7 19 16C19 14.9 19.9 14 21 14C22.1 14 23 14.9 23 16C23 16.7 22.6 17.4 22 17.7V19.3C22.3 19.5 22.5 19.7 22.7 20H24.3C24.6 19.4 25.3 19 26 19C27.1 19 28 19.9 28 21C28 22.1 27.1 23 26 23C25.3 23 24.6 22.6 24.3 22H22.7C22.5 22.3 22.3 22.5 22 22.7V24.3C22.6 24.6 23 25.3 23 26C23 27.1 22.1 28 21 28C19.9 28 19 27.1 19 26ZM22 33.9V30.9C22.6 30.8 23.3 30.7 23.9 30.5L25.1 33.3C24.1 33.7 23.1 33.9 22 33.9ZM26.9 32.6L25.8 29.8C26.4 29.5 26.9 29.1 27.4 28.7L29.5 30.8C28.7 31.5 27.8 32.1 26.9 32.6ZM30.9 29.4L28.8 27.3C29.2 26.8 29.6 26.3 29.9 25.7L32.7 26.8C32.1 27.8 31.5 28.7 30.9 29.4ZM33.4 25L30.6 23.8C30.8 23.2 30.9 22.6 31 21.9H34C33.9 23.1 33.7 24.1 33.4 25ZM30.9 20C30.8 19.4 30.7 18.7 30.5 18.1L33.3 16.9C33.6 17.9 33.8 18.9 33.9 19.9H30.9V20Z" fill="black"/>
<path d="M34.9 15.3C34.1 13.4 33 11.8 31.7 10.4C30.3 9 28.7 7.9 26.9 7.2C25 6.4 23 6 21 6C19 6 17 6.4 15.3 7.1C13.4 7.9 11.8 9 10.4 10.4C9 11.8 7.9 13.4 7.2 15.2C6.4 17.1 6 19 6 21C6 23 6.4 24.9 7.1 26.7C7.9 28.5 9 30.1 10.3 31.5C11.7 32.9 13.3 34 15.1 34.7C17 35.6 19 36 21 36C23 36 25 35.6 26.7 34.9C28.5 34.1 30.1 33 31.5 31.7C32.9 30.3 34 28.7 34.7 26.9C35.6 24.9 36 23 36 21C36 19 35.6 17.1 34.9 15.3ZM32.6 15.1L29.8 16.2C29.5 15.6 29.1 15.1 28.7 14.6L30.8 12.5C31.5 13.3 32.1 14.2 32.6 15.1ZM26.9 9.4C27.8 9.9 28.7 10.4 29.5 11.1L27.4 13.2C26.9 12.8 26.4 12.4 25.8 12.1L26.9 9.4ZM22 8.1C23.1 8.2 24.1 8.4 25 8.7L23.8 11.5C23.2 11.3 22.6 11.2 21.9 11.1V8.1H22ZM20 8.1V11.1C19.4 11.2 18.7 11.3 18.1 11.5L17 8.6C17.9 8.3 18.9 8.1 20 8.1ZM15.1 9.4L16.2 12.2C15.6 12.5 15.1 12.9 14.6 13.3L12.6 11.1C13.3 10.5 14.2 9.9 15.1 9.4ZM11.1 12.6L13.2 14.7C12.8 15.2 12.4 15.7 12.1 16.3L9.3 15.2C9.9 14.2 10.5 13.3 11.1 12.6ZM8.6 17L11.4 18.2C11.2 18.8 11.1 19.4 11 20.1H8C8.1 18.9 8.3 17.9 8.6 17ZM8.1 22H11.1C11.2 22.6 11.3 23.3 11.5 23.9L8.6 25C8.3 24.1 8.1 23.1 8.1 22ZM9.4 26.9L12.2 25.8C12.5 26.4 12.9 26.9 13.3 27.4L11.2 29.5C10.5 28.7 9.9 27.8 9.4 26.9ZM15.1 32.6C14.2 32.1 13.3 31.6 12.5 30.9L14.6 28.8C15.1 29.2 15.6 29.6 16.2 29.9L15.1 32.6ZM20 33.9C18.9 33.8 17.9 33.6 17 33.3L18.2 30.5C18.8 30.7 19.4 30.8 20.1 30.9V33.9H20ZM19 26C19 25.3 19.4 24.6 20 24.3V22.7C19.7 22.5 19.5 22.3 19.3 22H17.7C17.4 22.6 16.7 23 16 23C14.9 23 14 22.1 14 21C14 19.9 14.9 19 16 19C16.7 19 17.4 19.4 17.7 20H19.3C19.5 19.7 19.7 19.5 20 19.3V17.7C19.4 17.4 19 16.7 19 16C19 14.9 19.9 14 21 14C22.1 14 23 14.9 23 16C23 16.7 22.6 17.4 22 17.7V19.3C22.3 19.5 22.5 19.7 22.7 20H24.3C24.6 19.4 25.3 19 26 19C27.1 19 28 19.9 28 21C28 22.1 27.1 23 26 23C25.3 23 24.6 22.6 24.3 22H22.7C22.5 22.3 22.3 22.5 22 22.7V24.3C22.6 24.6 23 25.3 23 26C23 27.1 22.1 28 21 28C19.9 28 19 27.1 19 26ZM22 33.9V30.9C22.6 30.8 23.3 30.7 23.9 30.5L25.1 33.3C24.1 33.7 23.1 33.9 22 33.9ZM26.9 32.6L25.8 29.8C26.4 29.5 26.9 29.1 27.4 28.7L29.5 30.8C28.7 31.5 27.8 32.1 26.9 32.6ZM30.9 29.4L28.8 27.3C29.2 26.8 29.6 26.3 29.9 25.7L32.7 26.8C32.1 27.8 31.5 28.7 30.9 29.4ZM33.4 25L30.6 23.8C30.8 23.2 30.9 22.6 31 21.9H34C33.9 23.1 33.7 24.1 33.4 25ZM30.9 20C30.8 19.4 30.7 18.7 30.5 18.1L33.3 16.9C33.6 17.9 33.8 18.9 33.9 19.9H30.9V20Z" fill="#828282"/>
</svg>
