<svg width="24" height="24" viewBox="0 0 24 24" fill="none" xmlns="http://www.w3.org/2000/svg">
<g clip-path="url(#clip0_2044_2974)">
<path fill-rule="evenodd" clip-rule="evenodd" d="M16.6987 19.24C20.5674 19.2866 22.9473 16.6271 21.6382 13.8277C20.3292 11.0282 19.0241 10.3983 16.9692 8.36872C14.9133 6.33912 11.9238 2.82815 11.9379 2C11.953 2.82815 9.08663 6.33912 7.03069 8.36872C4.97577 10.3983 3.67176 11.0282 2.36169 13.8277C1.05264 16.6271 3.43356 19.2866 7.30118 19.24C9.95664 19.2079 11.1516 17.5711 11.6391 16.5477L11.6391 17.8871C11.6391 17.8871 10.7913 22.7183 4.80822 23.2472L3.85444 23.2472L3.85444 24L20.1465 24L20.1465 23.2472L19.1917 23.2472C13.2096 22.7183 12.3608 17.8871 12.3608 17.8871L12.3608 16.7236C12.9351 17.748 14.1906 19.2097 16.6987 19.24Z" fill="#1A1919"/>
</g>
<defs>
<clipPath id="clip0_2044_2974">
<rect width="24" height="24" fill="white"/>
</clipPath>
</defs>
</svg>
