<svg width="48" height="48" viewBox="0 0 48 48" fill="none" xmlns="http://www.w3.org/2000/svg">
<path fill-rule="evenodd" clip-rule="evenodd" d="M33.3975 37.48C41.1347 37.5733 45.8946 32.2542 43.2764 26.6554C40.6583 21.0564 38.0483 19.7967 33.9384 15.7374C29.8266 11.6782 23.8475 4.6563 23.8758 3C23.9061 4.6563 18.1733 11.6782 14.0614 15.7374C9.95153 19.7967 7.34351 21.0564 4.72338 26.6554C2.10527 32.2542 6.86713 37.5733 14.6024 37.48C19.9133 37.4158 22.3033 34.1421 23.2783 32.0954L23.2783 34.7741C23.2783 34.7741 21.5827 44.4366 9.61645 45.4943L7.70888 45.4943L7.70888 47L40.293 47L40.293 45.4943L38.3834 45.4943C26.4192 44.4366 24.7216 34.7741 24.7216 34.7741L24.7216 32.4471C25.8701 34.4961 28.3813 37.4194 33.3975 37.48Z" fill="#1A1919"/>
</svg>
