<svg width="70" height="48" viewBox="0 0 70 48" fill="none" xmlns="http://www.w3.org/2000/svg">
<rect width="70" height="48" rx="6" fill="#333232"/>
<rect width="70" height="48" rx="6" fill="url(#paint0_linear_2073_1295)"/>
<path d="M35.125 8C44.0324 8 51.2538 15.2211 51.2539 24.1289C51.2539 33.0368 44.0325 40.2588 35.125 40.2588C26.2177 40.2585 18.9971 33.0367 18.9971 24.1289C18.9972 15.2213 26.2178 8.00024 35.125 8ZM34.0273 16.9004L30.4434 16.0166L29.9707 17.9072C29.9942 17.9126 31.2809 18.206 31.2617 18.2266C31.9809 18.4061 32.112 18.8799 32.0898 19.2559L30.0947 27.2236C30.0066 27.4404 29.7831 27.7673 29.2803 27.6436C29.2861 27.665 28.0093 27.3288 27.9883 27.3232L27.1055 29.3496L30.6846 30.249L29.9492 33.1914L31.7236 33.6328L32.4531 30.7227C32.9379 30.8527 33.4087 30.975 33.8691 31.0889L33.1436 33.9844L34.9199 34.4268L35.6562 31.4912C38.6873 32.0619 40.966 31.8312 41.9248 29.1006C42.4297 27.2031 41.8863 25.6336 40.292 24.8066C41.4542 24.5404 42.3295 23.78 42.5635 22.208C42.8854 20.0611 41.2434 18.9072 39 18.1367L39.7285 15.2275L37.9512 14.7861L37.2432 17.6182C36.7765 17.5022 36.2961 17.393 35.8184 17.2852L36.5322 14.4336L34.7559 13.9922L34.0273 16.9004ZM34.0078 24.6943C35.2127 24.9938 39.0751 25.5873 38.502 27.8799C37.952 30.0778 34.2372 28.8894 33.0322 28.5908L34.0078 24.6943ZM35.3398 19.376C36.3438 19.6261 39.5734 20.0921 39.0527 22.1768C38.5513 24.1744 35.459 23.1595 34.4551 22.9111L35.3398 19.376Z" fill="#333232"/>
<defs>
<linearGradient id="paint0_linear_2073_1295" x1="35" y1="48" x2="35" y2="0" gradientUnits="userSpaceOnUse">
<stop stop-color="#161616"/>
<stop offset="1" stop-color="#0D0D0D"/>
</linearGradient>
</defs>
</svg>
