<svg width="68" height="65" viewBox="0 0 68 65" fill="none" xmlns="http://www.w3.org/2000/svg">
<g clip-path="url(#clip0_2073_1276)">
<path d="M48.3857 13.2827C57.618 22.515 61.0296 26.0236 60.9649 26.2176C60.8679 26.4439 59.8816 26.4763 50.908 26.4763C42.5811 26.4763 40.8834 26.4439 40.5115 26.2499C40.269 26.1206 38.7007 24.6331 37.003 22.9354C35.0951 21.0113 33.8177 19.8471 33.6075 19.8471C33.2195 19.8471 23.9872 29.0148 23.9872 29.4028C23.9872 29.5483 24.1004 29.7262 24.2459 29.7747C24.3914 29.8232 33.6075 29.8717 44.7316 29.8717H64.9585L66.1388 31.052C67.1413 32.0706 67.3192 32.3132 67.3192 32.7982C67.3192 33.3156 66.3167 34.3504 51.5062 49.1447C36.34 64.3109 35.6771 64.9576 35.1274 64.9576C34.7879 64.9576 34.3675 64.8283 34.1573 64.6504L33.7692 64.3432L33.6884 58.7651L33.6075 53.1869L33.2195 52.7665L32.8476 52.3623L26.0245 52.3138C19.3306 52.2653 19.2013 52.2653 18.6516 51.9096C18.3443 51.7155 15.434 48.9022 12.2003 45.6685C7.91558 41.3676 6.34722 39.7022 6.39572 39.4759C6.44423 39.1848 6.7676 39.1687 16.582 39.1687H26.7197L30.0181 42.4347C32.023 44.4396 33.4297 45.717 33.6075 45.717C33.9956 45.717 43.2279 36.5332 43.2279 36.1613C43.2279 36.0158 43.1147 35.8379 42.9692 35.7894C42.8237 35.7409 33.6237 35.6924 22.4997 35.6924H2.30506L1.31877 34.7546C0.0899554 33.5905 -0.20108 32.9922 0.122293 32.2485C0.364823 31.6988 18.118 13.8971 18.8132 13.5252C19.1366 13.3474 20.6565 13.2827 26.0083 13.2503L32.7991 13.218L33.2033 12.8138L33.6075 12.4096L33.6884 6.81522L33.7692 1.22087L34.1573 0.913671C34.3675 0.735816 34.7879 0.60646 35.1274 0.60646C35.6933 0.60646 36.2269 1.12386 48.3857 13.2827Z" fill="#F75154"/>
</g>
<defs>
<clipPath id="clip0_2073_1276">
<rect width="67.3019" height="64.9979" fill="white"/>
</clipPath>
</defs>
</svg>
