<svg width="70" height="48" viewBox="0 0 70 48" fill="none" xmlns="http://www.w3.org/2000/svg">
<rect width="70" height="48" rx="6" fill="#333232"/>
<rect width="70" height="48" rx="6" fill="url(#paint0_linear_2073_1299)"/>
<path d="M62.9867 21.1459L62.9999 21.1313H60.9076L59.5863 25.7115H59.5162L57.9992 21.1313H55.5127L58.5044 28.69L57.2546 30.9939V31.0495H59.2067L62.9867 21.1459Z" fill="#333232"/>
<path d="M39.7911 21.1313H37.5718V28.6622H39.7911V21.1313Z" fill="#333232"/>
<path d="M55.0765 26.7789V23.6325C55.0765 21.9184 54.0647 20.9767 52.2806 20.9767C51.1418 20.9767 50.3562 21.1738 48.9225 21.6089L49.3153 23.3375C50.622 22.7476 51.1974 22.495 51.8018 22.495C52.5319 22.495 52.8559 23.0148 52.8559 23.8163V23.8718C50.3125 24.3493 49.5256 24.6165 49.0349 25.1085C48.6699 25.4735 48.5151 25.9933 48.5151 26.5977C48.5151 28.0446 49.6393 28.817 50.6921 28.817C51.4791 28.817 52.1113 28.5221 52.9683 27.8753L53.1231 28.6623H55.3424L55.0765 26.7789ZM52.8572 26.8358C52.2673 27.1585 51.9301 27.2855 51.5373 27.2855C51.0029 27.2855 50.6657 26.9337 50.6657 26.3729C50.6657 26.1626 50.708 25.951 50.876 25.783C51.1431 25.5158 51.6629 25.3188 52.8572 25.0384V26.8358Z" fill="#333232"/>
<path d="M45.3128 20.9767C44.4981 20.9767 43.8658 21.2862 43.149 21.876V21.1314H40.9297V31.0496H43.149V28.5909C43.5709 28.7033 43.9637 28.7602 44.4412 28.7602C46.4224 28.7602 48.2066 27.2987 48.2066 24.6998C48.2066 22.3681 46.9144 20.9767 45.3128 20.9767ZM43.9069 27.3688C43.6542 27.3688 43.4148 27.341 43.1477 27.2564V23.1828C43.6119 22.8601 43.9902 22.7053 44.4676 22.7053C45.2969 22.7053 45.9569 23.3653 45.9569 24.7712C45.9582 26.5686 44.9887 27.3688 43.9069 27.3688Z" fill="#333232"/>
<path d="M18.7592 17.2522H9.24312C8.00385 17.2522 7 18.2653 7 19.5138V29.1106C7 30.3591 8.00385 31.3722 9.24312 31.3722H18.7592C19.9985 31.3722 21.001 30.3591 21.001 29.1106V19.5138C21.0023 18.264 19.9985 17.2522 18.7592 17.2522Z" fill="#333232"/>
<path d="M18.5276 26.1189C17.9681 25.9297 17.2156 25.6401 16.3784 25.3346C16.881 24.4524 17.283 23.4485 17.5475 22.3574H14.7873V21.3549H18.1678V20.7954H14.7873V19.1237H13.4078C13.1658 19.1237 13.1658 19.3644 13.1658 19.3644V20.7941H9.74687V21.3536H13.1658V22.3561H10.342V22.9155H15.8176C15.6179 23.6112 15.3481 24.2659 15.0293 24.8598C13.2531 24.2686 11.3565 23.7898 10.1661 24.0847C9.40432 24.2738 8.91364 24.6111 8.62531 24.9656C7.30272 26.5884 8.25102 29.0537 11.0443 29.0537C12.6963 29.0537 14.2873 28.1252 15.52 26.595C17.3597 27.4864 21.0008 29.018 21.0008 29.018V26.8357C21.0022 26.8357 20.5445 26.7987 18.5276 26.1189ZM10.7838 28.1107C8.60547 28.1107 7.96137 26.3807 9.03796 25.4338C9.39771 25.1137 10.0537 24.9576 10.4029 24.9232C11.6964 24.7949 12.8947 25.2922 14.3085 25.9879C13.3152 27.2947 12.0495 28.1107 10.7838 28.1107Z" fill="#333232"/>
<path d="M18.5276 26.1189C17.9681 25.9297 17.2156 25.6401 16.3784 25.3346C16.881 24.4524 17.283 23.4485 17.5475 22.3574H14.7873V21.3549H18.1678V20.7954H14.7873V19.1237H13.4078C13.1658 19.1237 13.1658 19.3644 13.1658 19.3644V20.7941H9.74687V21.3536H13.1658V22.3561H10.342V22.9155H15.8176C15.6179 23.6112 15.3481 24.2659 15.0293 24.8598C13.2531 24.2686 11.3565 23.7898 10.1661 24.0847C9.40432 24.2738 8.91364 24.6111 8.62531 24.9656C7.30272 26.5884 8.25102 29.0537 11.0443 29.0537C12.6963 29.0537 14.2873 28.1252 15.52 26.595C17.3597 27.4864 21.0008 29.018 21.0008 29.018V26.8357C21.0022 26.8357 20.5445 26.7987 18.5276 26.1189ZM10.7838 28.1107C8.60547 28.1107 7.96137 26.3807 9.03796 25.4338C9.39771 25.1137 10.0537 24.9576 10.4029 24.9232C11.6964 24.7949 12.8947 25.2922 14.3085 25.9879C13.3152 27.2947 12.0495 28.1107 10.7838 28.1107Z" fill="url(#paint1_linear_2073_1299)"/>
<path d="M29.9432 18.7573H26.9647L23.6357 28.6622H25.6871L26.2492 26.7233H29.7752L30.3096 28.6622H32.9362L29.9432 18.7573ZM26.7121 25.1071L28.032 20.5415H28.0876L29.3374 25.1071H26.7121Z" fill="#333232"/>
<path d="M36.0533 18.4055H33.834V28.6609H36.0533V18.4055Z" fill="#333232"/>
<path d="M37.4023 19.3194C37.4023 20.0494 37.9367 20.5414 38.6813 20.5414C39.4259 20.5414 39.9602 20.0494 39.9602 19.3194C39.9602 18.6025 39.4259 18.0973 38.6813 18.0973C37.9367 18.0973 37.4023 18.6025 37.4023 19.3194Z" fill="#333232"/>
<defs>
<linearGradient id="paint0_linear_2073_1299" x1="35" y1="48" x2="35" y2="0" gradientUnits="userSpaceOnUse">
<stop stop-color="#161616"/>
<stop offset="1" stop-color="#0D0D0D"/>
</linearGradient>
<linearGradient id="paint1_linear_2073_1299" x1="14.5187" y1="29.0537" x2="14.5187" y2="19.1237" gradientUnits="userSpaceOnUse">
<stop stop-color="#161616"/>
<stop offset="1" stop-color="#0D0D0D"/>
</linearGradient>
</defs>
</svg>
