<svg width="42" height="42" viewBox="0 0 42 42" fill="none" xmlns="http://www.w3.org/2000/svg">
<g filter="url(#filter0_ii_2073_1392)">
<rect width="42" height="42" rx="8" fill="white"/>
<rect width="42" height="42" rx="8" fill="url(#paint0_linear_2073_1392)"/>
<g filter="url(#filter1_ii_2073_1392)">
<path d="M34.3332 17H7.6665V14.3333C7.6665 13.2725 8.08793 12.255 8.83808 11.5049C9.58822 10.7548 10.6056 10.3333 11.6665 10.3333H30.3332C31.394 10.3333 32.4115 10.7548 33.1616 11.5049C33.9117 12.255 34.3332 13.2725 34.3332 14.3333V17ZM34.3332 19.6667V27.6667C34.3332 28.7275 33.9117 29.7449 33.1616 30.4951C32.4115 31.2452 31.394 31.6667 30.3332 31.6667H11.6665C10.6056 31.6667 9.58822 31.2452 8.83808 30.4951C8.08793 29.7449 7.6665 28.7275 7.6665 27.6667V19.6667H15.8345C16.1311 20.811 16.7993 21.8244 17.7342 22.5479C18.669 23.2714 19.8177 23.6639 20.9998 23.6639C22.182 23.6639 23.3306 23.2714 24.2655 22.5479C25.2004 21.8244 25.8686 20.811 26.1652 19.6667H34.3332Z" fill="url(#paint1_linear_2073_1392)"/>
</g>
</g>
<defs>
<filter id="filter0_ii_2073_1392" x="0" y="0" width="42" height="42" filterUnits="userSpaceOnUse" color-interpolation-filters="sRGB">
<feFlood flood-opacity="0" result="BackgroundImageFix"/>
<feBlend mode="normal" in="SourceGraphic" in2="BackgroundImageFix" result="shape"/>
<feColorMatrix in="SourceAlpha" type="matrix" values="0 0 0 0 0 0 0 0 0 0 0 0 0 0 0 0 0 0 127 0" result="hardAlpha"/>
<feOffset dy="1"/>
<feComposite in2="hardAlpha" operator="arithmetic" k2="-1" k3="1"/>
<feColorMatrix type="matrix" values="0 0 0 0 0.144231 0 0 0 0 0.144231 0 0 0 0 0.144231 0 0 0 0.34 0"/>
<feBlend mode="normal" in2="shape" result="effect1_innerShadow_2073_1392"/>
<feColorMatrix in="SourceAlpha" type="matrix" values="0 0 0 0 0 0 0 0 0 0 0 0 0 0 0 0 0 0 127 0" result="hardAlpha"/>
<feOffset dy="-1"/>
<feComposite in2="hardAlpha" operator="arithmetic" k2="-1" k3="1"/>
<feColorMatrix type="matrix" values="0 0 0 0 0.139423 0 0 0 0 0.139423 0 0 0 0 0.139423 0 0 0 0.39 0"/>
<feBlend mode="normal" in2="effect1_innerShadow_2073_1392" result="effect2_innerShadow_2073_1392"/>
</filter>
<filter id="filter1_ii_2073_1392" x="7.6665" y="10.3333" width="26.6665" height="21.3333" filterUnits="userSpaceOnUse" color-interpolation-filters="sRGB">
<feFlood flood-opacity="0" result="BackgroundImageFix"/>
<feBlend mode="normal" in="SourceGraphic" in2="BackgroundImageFix" result="shape"/>
<feColorMatrix in="SourceAlpha" type="matrix" values="0 0 0 0 0 0 0 0 0 0 0 0 0 0 0 0 0 0 127 0" result="hardAlpha"/>
<feOffset dy="1"/>
<feComposite in2="hardAlpha" operator="arithmetic" k2="-1" k3="1"/>
<feColorMatrix type="matrix" values="0 0 0 0 0.94902 0 0 0 0 0.309804 0 0 0 0 0.317647 0 0 0 1 0"/>
<feBlend mode="normal" in2="shape" result="effect1_innerShadow_2073_1392"/>
<feColorMatrix in="SourceAlpha" type="matrix" values="0 0 0 0 0 0 0 0 0 0 0 0 0 0 0 0 0 0 127 0" result="hardAlpha"/>
<feOffset dy="-1"/>
<feComposite in2="hardAlpha" operator="arithmetic" k2="-1" k3="1"/>
<feColorMatrix type="matrix" values="0 0 0 0 1 0 0 0 0 0.456731 0 0 0 0 0.463397 0 0 0 1 0"/>
<feBlend mode="normal" in2="effect1_innerShadow_2073_1392" result="effect2_innerShadow_2073_1392"/>
</filter>
<linearGradient id="paint0_linear_2073_1392" x1="21" y1="42" x2="21" y2="0" gradientUnits="userSpaceOnUse">
<stop stop-color="#161616"/>
<stop offset="1" stop-color="#0D0D0D"/>
</linearGradient>
<linearGradient id="paint1_linear_2073_1392" x1="20.9998" y1="10.3333" x2="20.9998" y2="31.6667" gradientUnits="userSpaceOnUse">
<stop stop-color="#AC2E30"/>
<stop offset="1" stop-color="#F75154"/>
</linearGradient>
</defs>
</svg>
