<svg width="62" height="62" viewBox="0 0 62 62" fill="none" xmlns="http://www.w3.org/2000/svg">
<path d="M17 41.0126C16.5042 41.0126 16.0888 40.8446 15.754 40.5086C15.4192 40.1726 15.2512 39.7573 15.25 39.2626C15.2488 38.768 15.4168 38.3526 15.754 38.0166C16.0912 37.6806 16.5065 37.5126 17 37.5126H45C45.4958 37.5126 45.9118 37.6806 46.2478 38.0166C46.5838 38.3526 46.7512 38.768 46.75 39.2626C46.7488 39.7573 46.5808 40.1732 46.246 40.5104C45.9112 40.8475 45.4958 41.015 45 41.0126H17ZM17 32.2626C16.5042 32.2626 16.0888 32.0946 15.754 31.7586C15.4192 31.4226 15.2512 31.0073 15.25 30.5126C15.2488 30.018 15.4168 29.6026 15.754 29.2666C16.0912 28.9306 16.5065 28.7626 17 28.7626H45C45.4958 28.7626 45.9118 28.9306 46.2478 29.2666C46.5838 29.6026 46.7512 30.018 46.75 30.5126C46.7488 31.0073 46.5808 31.4232 46.246 31.7604C45.9112 32.0976 45.4958 32.265 45 32.2626H17ZM17 23.5126C16.5042 23.5126 16.0888 23.3446 15.754 23.0086C15.4192 22.6726 15.2512 22.2573 15.25 21.7626C15.2488 21.268 15.4168 20.8526 15.754 20.5166C16.0912 20.1806 16.5065 20.0126 17 20.0126H45C45.4958 20.0126 45.9118 20.1806 46.2478 20.5166C46.5838 20.8526 46.7512 21.268 46.75 21.7626C46.7488 22.2573 46.5808 22.6732 46.246 23.0104C45.9112 23.3476 45.4958 23.515 45 23.5126H17Z" fill="white"/>
</svg>
