<svg width="36" height="36" viewBox="0 0 36 36" fill="none" xmlns="http://www.w3.org/2000/svg">
<g clip-path="url(#clip0_53_51)">
<g opacity="0.5">
<path d="M16.1767 8.86218C15.9148 7.73642 15.693 6.78289 15.4523 6.03424L26.6251 9.27523C26.6989 9.29665 26.8909 9.3814 27.1564 10.0773C27.4159 10.7574 27.6505 11.7573 27.988 13.2078L28.19 14.0767C28.2348 14.27 28.2774 14.4543 28.3229 14.6291L18.1969 11.8246L17.6856 11.5334C16.9622 11.1214 16.8293 11.0256 16.7357 10.895C16.6314 10.7495 16.5686 10.5472 16.3635 9.66569L16.1767 8.86218Z" fill="url(#paint0_linear_53_51)"/>
<path d="M21.9452 14.6104L30.3795 16.9463L30.8908 17.2375C32.0809 17.9155 32.8829 18.3751 33.4056 18.794C33.906 19.1948 33.992 19.4342 33.9994 19.6379C34.0073 19.8524 33.929 20.1215 33.4482 20.6039C32.9532 21.1002 32.1826 21.6756 31.0506 22.5167L30.3786 23.0159C30.061 23.2514 29.7733 23.4644 29.5314 23.7029L18.0706 20.3783L18.6745 19.9295C19.7366 19.1404 20.6104 18.4913 21.2045 17.8956C21.8229 17.2753 22.2792 16.5761 22.2462 15.6786C22.2314 15.2757 22.1215 14.924 21.9452 14.6104Z" fill="url(#paint1_linear_53_51)"/>
<path d="M16.9459 21.8058L28.7564 25.2317C28.7074 25.4699 28.6683 25.7257 28.6259 26.0023L28.4895 26.8892C28.3596 27.7327 28.1679 28.4839 27.9642 29.1204C27.6054 30.2417 27.5136 30.3975 27.244 30.5523C27.1281 30.6188 27.0191 30.648 26.7907 30.6222C26.5111 30.5907 26.1527 30.4898 25.5413 30.3125L15.7817 27.4814C15.899 27.2345 15.9918 26.9704 16.0703 26.7014C16.3148 25.8645 16.4908 24.7217 16.7077 23.3125L16.8344 22.4903C16.8794 22.1979 16.9149 21.9769 16.9459 21.8058Z" fill="url(#paint2_linear_53_51)"/>
</g>
<path d="M10.2616 8.01697C11.2259 6.9412 11.8861 6.20794 12.4188 5.76451C12.9583 5.31545 13.1345 5.36165 13.1891 5.37748C13.263 5.39891 13.4549 5.48368 13.7204 6.17956C13.9799 6.85963 14.2145 7.85958 14.552 9.31009L14.7541 10.179C14.911 10.8576 15.0416 11.4214 15.367 11.8757C15.7025 12.344 16.1896 12.6204 16.7449 12.9356L16.8525 12.9968L17.4549 13.3399C18.645 14.0177 19.4471 14.4774 19.9697 14.8961C20.4699 15.2971 20.556 15.5365 20.5636 15.7403C20.5715 15.9547 20.4932 16.2238 20.0123 16.7062C19.5173 17.2025 18.7466 17.7779 17.6148 18.619L16.9428 19.1182C16.4078 19.5145 15.9583 19.8477 15.6684 20.3449C15.3848 20.8309 15.2977 21.4001 15.1899 22.1047L15.0535 22.9913C14.8241 24.4807 14.6635 25.512 14.454 26.229C14.3361 26.6325 14.224 26.8577 14.1293 26.9862C13.9468 26.9184 13.7037 26.8193 13.4168 26.6819C12.7344 26.3551 11.8098 25.8135 10.8629 24.9618L10.3366 24.4883L10.3134 24.4676C10.0442 24.2252 9.80475 24.01 9.588 23.8456C9.35359 23.6679 9.10071 23.514 8.79125 23.4242C8.24412 23.2655 7.6808 23.3711 7.07339 23.4852L6.94222 23.5098L6.26772 23.6349C4.93259 23.8825 4.03768 24.0457 3.39571 24.0576C2.7792 24.0691 2.6496 23.9362 2.58027 23.8395C2.48341 23.7043 2.39307 23.4424 2.54351 22.7047C2.69327 21.9702 3.03029 20.9908 3.51947 19.5768L3.8094 18.7393C4.04309 18.0659 4.22997 17.5274 4.20912 16.959C4.18813 16.3867 3.95983 15.8708 3.67801 15.2338L3.32827 14.4416C2.73763 13.1031 2.33245 12.1802 2.13078 11.4745C1.93116 10.776 1.99324 10.493 2.09364 10.3209C2.17696 10.178 2.32785 10.026 2.93564 9.9509C3.57522 9.87191 4.47662 9.90745 5.82281 9.96473L6.50296 9.99367L6.63132 9.99929C7.24917 10.0268 7.81487 10.0519 8.34003 9.8199C8.85089 9.59416 9.23717 9.16179 9.68037 8.66571L9.77268 8.5625L10.2616 8.01697Z" fill="url(#paint3_linear_53_51)"/>
</g>
<defs>
<linearGradient id="paint0_linear_53_51" x1="21.8876" y1="6.03424" x2="21.8876" y2="14.6291" gradientUnits="userSpaceOnUse">
<stop stop-color="#AC2E30"/>
<stop offset="1" stop-color="#F75154"/>
</linearGradient>
<linearGradient id="paint1_linear_53_51" x1="26.0353" y1="14.6104" x2="26.0353" y2="23.7029" gradientUnits="userSpaceOnUse">
<stop stop-color="#AC2E30"/>
<stop offset="1" stop-color="#F75154"/>
</linearGradient>
<linearGradient id="paint2_linear_53_51" x1="22.2691" y1="21.8058" x2="22.2691" y2="30.6315" gradientUnits="userSpaceOnUse">
<stop stop-color="#AC2E30"/>
<stop offset="1" stop-color="#F75154"/>
</linearGradient>
<linearGradient id="paint3_linear_53_51" x1="11.2818" y1="5.3681" x2="11.2818" y2="26.9862" gradientUnits="userSpaceOnUse">
<stop stop-color="#AC2E30"/>
<stop offset="1" stop-color="#F75154"/>
</linearGradient>
<clipPath id="clip0_53_51">
<rect width="36" height="36" fill="white"/>
</clipPath>
</defs>
</svg>
