<svg width="70" height="48" viewBox="0 0 70 48" fill="none" xmlns="http://www.w3.org/2000/svg">
<rect width="70" height="48" rx="6" fill="#333232"/>
<rect width="70" height="48" rx="6" fill="url(#paint0_linear_2073_1297)"/>
<path d="M27.1961 10.0835C34.9529 5.70484 44.7913 8.44333 49.1703 16.2004C53.5493 23.9577 50.8108 33.7968 43.0539 38.1755C35.2971 42.5539 25.4589 39.8144 21.08 32.0573C16.7013 24.3002 19.4396 14.4623 27.1961 10.0835ZM30.6155 18.3739L27.06 19.3661L27.5778 21.2448C27.5997 21.2383 28.8656 20.8609 28.859 20.8883C29.5735 20.691 29.9206 21.0392 30.0861 21.3775L32.2655 29.2969C32.2954 29.529 32.2614 29.9236 31.7627 30.0629C31.7795 30.0785 30.4999 30.4139 30.4801 30.4191L30.7075 32.6177L34.2664 31.6415L35.0725 34.5653L36.8347 34.0775L36.0394 31.1846C36.5254 31.0595 36.9955 30.9346 37.4525 30.8074L38.244 33.6856L40.0084 33.1976L39.2065 30.2793C42.1266 29.2863 43.9976 27.9652 43.4902 25.1159C42.9971 23.2153 41.7524 22.1157 39.9575 22.1793C40.8387 21.3762 41.2272 20.2836 40.6581 18.7997C39.8831 16.7719 37.8859 16.5742 35.5536 17.006L34.7579 14.1145L32.9931 14.6038L33.7688 17.4181C33.3054 17.5465 32.8334 17.6876 32.3643 17.8285L31.5842 14.9943L29.8203 15.4832L30.6155 18.3739ZM34.4298 25.1707C35.6264 24.8391 39.2816 23.4574 39.9094 25.7355C40.511 27.9199 36.6919 28.7111 35.4957 29.0434L34.4298 25.1707ZM32.9754 19.8845C33.9726 19.6088 37.0142 18.427 37.5855 20.4983C38.1309 22.4844 34.939 23.1207 33.9427 23.3979L32.9754 19.8845Z" fill="#333232"/>
<defs>
<linearGradient id="paint0_linear_2073_1297" x1="35" y1="48" x2="35" y2="0" gradientUnits="userSpaceOnUse">
<stop stop-color="#161616"/>
<stop offset="1" stop-color="#0D0D0D"/>
</linearGradient>
</defs>
</svg>
