<svg width="42" height="42" viewBox="0 0 42 42" fill="none" xmlns="http://www.w3.org/2000/svg">
<g filter="url(#filter0_ii_2073_1410)">
<rect width="42" height="42" rx="8" fill="white"/>
<rect width="42" height="42" rx="8" fill="url(#paint0_linear_2073_1410)"/>
<g filter="url(#filter1_ii_2073_1410)">
<path d="M33 22.091V19.9092H29.6509C29.4535 18.3583 28.8432 16.8889 27.8836 15.6546L30.2727 13.2873L28.7127 11.7273L26.3455 14.1164C25.1112 13.1569 23.6418 12.5465 22.0909 12.3492V9.00006H19.9091V12.3492C18.36 12.5455 16.8873 13.1564 15.6545 14.1164L13.2873 11.7273L11.7273 13.2873L14.1164 15.6546C13.1568 16.8889 12.5465 18.3583 12.3491 19.9092H9V22.091H12.3491C12.5455 23.6401 13.1564 25.1128 14.1164 26.3455L11.7273 28.7128L13.2873 30.2728L15.6545 27.8837C16.8873 28.8437 18.36 29.4546 19.9091 29.651V33.0001H22.0909V29.651C23.64 29.4546 25.1127 28.8437 26.3455 27.8837L28.7127 30.2728L30.2727 28.7128L27.8836 26.3455C28.8432 25.1112 29.4535 23.6418 29.6509 22.091H33ZM21 16.6364C19.8427 16.6364 18.7328 17.0962 17.9144 17.9145C17.0961 18.7328 16.6364 19.8428 16.6364 21.0001H14.4545C14.4545 19.2641 15.1442 17.5992 16.3717 16.3717C17.5992 15.1442 19.264 14.4546 21 14.4546V16.6364Z" fill="url(#paint1_linear_2073_1410)"/>
</g>
</g>
<defs>
<filter id="filter0_ii_2073_1410" x="0" y="0" width="42" height="42" filterUnits="userSpaceOnUse" color-interpolation-filters="sRGB">
<feFlood flood-opacity="0" result="BackgroundImageFix"/>
<feBlend mode="normal" in="SourceGraphic" in2="BackgroundImageFix" result="shape"/>
<feColorMatrix in="SourceAlpha" type="matrix" values="0 0 0 0 0 0 0 0 0 0 0 0 0 0 0 0 0 0 127 0" result="hardAlpha"/>
<feOffset dy="1"/>
<feComposite in2="hardAlpha" operator="arithmetic" k2="-1" k3="1"/>
<feColorMatrix type="matrix" values="0 0 0 0 0.144231 0 0 0 0 0.144231 0 0 0 0 0.144231 0 0 0 0.34 0"/>
<feBlend mode="normal" in2="shape" result="effect1_innerShadow_2073_1410"/>
<feColorMatrix in="SourceAlpha" type="matrix" values="0 0 0 0 0 0 0 0 0 0 0 0 0 0 0 0 0 0 127 0" result="hardAlpha"/>
<feOffset dy="-1"/>
<feComposite in2="hardAlpha" operator="arithmetic" k2="-1" k3="1"/>
<feColorMatrix type="matrix" values="0 0 0 0 0.139423 0 0 0 0 0.139423 0 0 0 0 0.139423 0 0 0 0.39 0"/>
<feBlend mode="normal" in2="effect1_innerShadow_2073_1410" result="effect2_innerShadow_2073_1410"/>
</filter>
<filter id="filter1_ii_2073_1410" x="9" y="9.00006" width="24" height="24" filterUnits="userSpaceOnUse" color-interpolation-filters="sRGB">
<feFlood flood-opacity="0" result="BackgroundImageFix"/>
<feBlend mode="normal" in="SourceGraphic" in2="BackgroundImageFix" result="shape"/>
<feColorMatrix in="SourceAlpha" type="matrix" values="0 0 0 0 0 0 0 0 0 0 0 0 0 0 0 0 0 0 127 0" result="hardAlpha"/>
<feOffset dy="1"/>
<feComposite in2="hardAlpha" operator="arithmetic" k2="-1" k3="1"/>
<feColorMatrix type="matrix" values="0 0 0 0 0.94902 0 0 0 0 0.309804 0 0 0 0 0.317647 0 0 0 1 0"/>
<feBlend mode="normal" in2="shape" result="effect1_innerShadow_2073_1410"/>
<feColorMatrix in="SourceAlpha" type="matrix" values="0 0 0 0 0 0 0 0 0 0 0 0 0 0 0 0 0 0 127 0" result="hardAlpha"/>
<feOffset dy="-1"/>
<feComposite in2="hardAlpha" operator="arithmetic" k2="-1" k3="1"/>
<feColorMatrix type="matrix" values="0 0 0 0 1 0 0 0 0 0.456731 0 0 0 0 0.463397 0 0 0 1 0"/>
<feBlend mode="normal" in2="effect1_innerShadow_2073_1410" result="effect2_innerShadow_2073_1410"/>
</filter>
<linearGradient id="paint0_linear_2073_1410" x1="21" y1="42" x2="21" y2="0" gradientUnits="userSpaceOnUse">
<stop stop-color="#161616"/>
<stop offset="1" stop-color="#0D0D0D"/>
</linearGradient>
<linearGradient id="paint1_linear_2073_1410" x1="21" y1="9.00006" x2="21" y2="33.0001" gradientUnits="userSpaceOnUse">
<stop stop-color="#AC2E30"/>
<stop offset="1" stop-color="#F75154"/>
</linearGradient>
</defs>
</svg>
