<svg width="70" height="48" viewBox="0 0 70 48" fill="none" xmlns="http://www.w3.org/2000/svg">
<rect width="70" height="48" rx="6" fill="#333232"/>
<rect width="70" height="48" rx="6" fill="url(#paint0_linear_2073_1292)"/>
<path fill-rule="evenodd" clip-rule="evenodd" d="M19.8 30.4819H16.6888C16.4759 30.4819 16.2948 30.6367 16.2616 30.8468L15.0033 38.8249C14.9783 38.9824 15.1002 39.1243 15.2599 39.1243H16.7452C16.9581 39.1243 17.1392 38.9695 17.1724 38.759L17.5118 36.6072C17.5445 36.3965 17.726 36.2419 17.9385 36.2419H18.9234C20.9729 36.2419 22.1556 35.2502 22.4647 33.2849C22.6038 32.4251 22.4705 31.7495 22.0678 31.2762C21.6257 30.7569 20.8413 30.4819 19.8 30.4819ZM20.159 33.3958C19.9889 34.5123 19.1358 34.5123 18.3111 34.5123H17.8416L18.1709 32.4272C18.1905 32.3013 18.2997 32.2085 18.4271 32.2085H18.6422C19.2041 32.2085 19.7341 32.2085 20.008 32.5287C20.1712 32.7198 20.2213 33.0036 20.159 33.3958ZM29.1002 33.36H27.6103C27.4834 33.36 27.3737 33.4529 27.3541 33.579L27.2882 33.9956L27.184 33.8447C26.8615 33.3765 26.1423 33.22 25.4244 33.22C23.7779 33.22 22.3718 34.467 22.0979 36.2163C21.9556 37.0887 22.1579 37.923 22.6529 38.5049C23.107 39.0398 23.7567 39.2628 24.5295 39.2628C25.856 39.2628 26.5918 38.4097 26.5918 38.4097L26.5253 38.8238C26.5002 38.9822 26.6221 39.1241 26.7809 39.1241H28.123C28.3365 39.1241 28.5165 38.9693 28.5501 38.7588L29.3554 33.6594C29.3809 33.5026 29.2594 33.36 29.1002 33.36ZM27.0234 36.2598C26.8796 37.111 26.204 37.6824 25.3426 37.6824C24.9099 37.6824 24.564 37.5436 24.3421 37.2807C24.1219 37.0196 24.0381 36.6478 24.1082 36.2339C24.2425 35.3899 24.9295 34.8 25.7779 34.8C26.2009 34.8 26.5449 34.9405 26.7714 35.2057C26.9983 35.4737 27.0885 35.8476 27.0234 36.2598ZM35.5379 33.3598H37.0352C37.2449 33.3598 37.3672 33.595 37.2481 33.767L32.2685 40.9548C32.1878 41.0712 32.055 41.1405 31.9131 41.1405H30.4177C30.2072 41.1405 30.0842 40.9034 30.2061 40.731L31.7567 38.5424L30.1076 33.7028C30.0506 33.5346 30.1748 33.3598 30.3537 33.3598H31.8249C32.016 33.3598 32.1847 33.4853 32.2398 33.6683L33.115 36.5912L35.1801 33.5495C35.2609 33.4308 35.3952 33.3598 35.5379 33.3598Z" fill="#333232"/>
<path fill-rule="evenodd" clip-rule="evenodd" d="M51.7708 38.8248L53.0476 30.7008C53.0672 30.5747 53.1765 30.4819 53.3034 30.4814H54.7409C54.8996 30.4814 55.0215 30.6238 54.9965 30.7812L53.7373 38.7589C53.7045 38.9695 53.5234 39.1242 53.3102 39.1242H52.0264C51.8676 39.1242 51.7457 38.9823 51.7708 38.8248ZM41.992 30.4819H38.8802C38.6678 30.4819 38.4867 30.6366 38.4535 30.8467L37.1952 38.8248C37.1701 38.9823 37.292 39.1242 37.451 39.1242H39.0476C39.196 39.1242 39.323 39.016 39.3461 38.8686L39.7032 36.6071C39.736 36.3964 39.9175 36.2419 40.1299 36.2419H41.1143C43.1642 36.2419 44.3468 35.2501 44.656 33.2848C44.7956 32.425 44.6615 31.7494 44.259 31.2762C43.8171 30.7568 43.0333 30.4819 41.992 30.4819ZM42.351 33.3958C42.1813 34.5122 41.3282 34.5122 40.503 34.5122H40.0339L40.3638 32.4271C40.3834 32.3012 40.4916 32.2084 40.6194 32.2084H40.8345C41.396 32.2084 41.9265 32.2084 42.2002 32.5286C42.3636 32.7198 42.4133 33.0036 42.351 33.3958ZM51.2914 33.36H49.8026C49.6746 33.36 49.5659 33.4528 49.5468 33.5789L49.4809 33.9956L49.3763 33.8446C49.0537 33.3764 48.335 33.22 47.6171 33.22C45.9706 33.22 44.5649 34.4669 44.291 36.2162C44.1491 37.0886 44.3506 37.9229 44.8455 38.5048C45.3005 39.0398 45.9493 39.2627 46.7221 39.2627C48.0487 39.2627 48.7842 38.4097 48.7842 38.4097L48.7179 38.8238C48.6929 38.9821 48.8148 39.124 48.9746 39.124H50.316C50.5285 39.124 50.7095 38.9693 50.7428 38.7587L51.5485 33.6593C51.5731 33.5025 51.4512 33.36 51.2914 33.36ZM49.2148 36.2598C49.0718 37.1109 48.3954 37.6823 47.5337 37.6823C47.1019 37.6823 46.7554 37.5436 46.5333 37.2806C46.3131 37.0196 46.2303 36.6478 46.2996 36.2339C46.4346 35.3899 47.1207 34.8 47.9691 34.8C48.3922 34.8 48.736 34.9404 48.9628 35.2057C49.1906 35.4737 49.2807 35.8476 49.2148 36.2598Z" fill="#333232"/>
<path d="M31.3143 27.6277L31.6968 25.1983L30.8448 25.1785H26.7764L29.6037 7.25081C29.6124 7.19668 29.641 7.14622 29.6827 7.11039C29.7244 7.07456 29.7778 7.05481 29.8334 7.05481H36.6934C38.9709 7.05481 40.5425 7.52873 41.3631 8.46412C41.7478 8.90294 41.9928 9.36149 42.1114 9.86612C42.2356 10.3956 42.2379 11.0282 42.1164 11.7998L42.1076 11.8561V12.3505L42.4924 12.5685C42.8164 12.7403 43.0737 12.9371 43.2711 13.1623C43.6004 13.5375 43.8133 14.0144 43.9031 14.5797C43.996 15.1611 43.9653 15.853 43.8133 16.6363C43.6377 17.5373 43.3539 18.322 42.9707 18.9642C42.6181 19.5558 42.169 20.0465 41.636 20.4269C41.1269 20.7881 40.5221 21.0625 39.8383 21.238C39.1756 21.4105 38.4202 21.4976 37.5915 21.4976H37.0577C36.676 21.4976 36.305 21.6351 36.0141 21.8816C35.7223 22.1332 35.529 22.4768 35.4699 22.8528L35.4297 23.0715L34.7539 27.3534L34.7231 27.5107C34.7151 27.5606 34.7012 27.5854 34.6808 27.6023C34.6625 27.6174 34.6362 27.6277 34.6105 27.6277H31.3143Z" fill="#333232"/>
<path d="M42.8563 11.9135C42.8358 12.0444 42.8125 12.1782 42.7862 12.3157C41.8813 16.9605 38.7864 18.5651 34.8333 18.5651H32.8207C32.3373 18.5651 31.9299 18.9161 31.8545 19.393L30.824 25.9284L30.5322 27.7809C30.4832 28.0939 30.7247 28.3762 31.0404 28.3762H34.6103C35.0331 28.3762 35.392 28.0691 35.4586 27.6522L35.4937 27.4707L36.1659 23.2055L36.2091 22.9716C36.2748 22.5533 36.6346 22.2461 37.0573 22.2461H37.5912C41.0497 22.2461 43.7573 20.8419 44.5487 16.7784C44.8792 15.0809 44.7081 13.6636 43.8333 12.6667C43.5687 12.3661 43.2403 12.1168 42.8563 11.9135Z" fill="#333232"/>
<path d="M41.9099 11.5364C41.7718 11.4962 41.629 11.4596 41.4827 11.4267C41.3358 11.3945 41.185 11.366 41.0301 11.3411C40.4874 11.2534 39.8928 11.2117 39.2558 11.2117H33.8789C33.7465 11.2117 33.6208 11.2416 33.5082 11.2958C33.2602 11.415 33.076 11.6498 33.0313 11.9372L31.8873 19.182L31.8545 19.3933C31.9299 18.9165 32.3372 18.5654 32.8206 18.5654H34.8332C38.7863 18.5654 41.8815 16.9601 42.7861 12.316C42.813 12.1785 42.8358 12.0447 42.8562 11.9138C42.6274 11.7924 42.3794 11.6885 42.1124 11.6C42.0467 11.5781 41.9787 11.5569 41.9099 11.5364Z" fill="#333232" fill-opacity="0.68"/>
<path d="M33.0311 11.937C33.0758 11.6495 33.2602 11.4148 33.508 11.2963C33.6215 11.2422 33.7465 11.2122 33.8787 11.2122H39.2558C39.8928 11.2122 40.4874 11.2539 41.0299 11.3416C41.185 11.3665 41.3358 11.395 41.4827 11.4272C41.629 11.4601 41.7716 11.4967 41.9099 11.5369C41.9785 11.5574 42.0465 11.5786 42.1131 11.5998C42.38 11.6883 42.628 11.7929 42.8568 11.9136C43.1261 10.1971 42.8547 9.02837 41.9267 7.97009C40.9036 6.80505 39.0568 6.30627 36.6939 6.30627H29.8337C29.3509 6.30627 28.9393 6.65731 28.8646 7.13489L26.0073 25.2468C25.9509 25.6052 26.2273 25.9285 26.5886 25.9285H30.824L31.8873 19.1817L33.0311 11.937Z" fill="#333232"/>
<defs>
<linearGradient id="paint0_linear_2073_1292" x1="35" y1="48" x2="35" y2="0" gradientUnits="userSpaceOnUse">
<stop stop-color="#161616"/>
<stop offset="1" stop-color="#0D0D0D"/>
</linearGradient>
</defs>
</svg>
