<svg width="42" height="42" viewBox="0 0 42 42" fill="none" xmlns="http://www.w3.org/2000/svg">
<g filter="url(#filter0_ii_2073_1383)">
<rect width="42" height="42" rx="8" fill="white"/>
<rect width="42" height="42" rx="8" fill="url(#paint0_linear_2073_1383)"/>
<g filter="url(#filter1_ii_2073_1383)">
<path d="M34.9 15.3001C34.1 13.4001 33 11.8001 31.7 10.4001C30.3 9.00006 28.7 7.90006 26.9 7.20006C25 6.40006 23 6.00006 21 6.00006C19 6.00006 17 6.40006 15.3 7.10006C13.4 7.90006 11.8 9.00006 10.4 10.4001C9 11.8001 7.9 13.4001 7.2 15.2001C6.4 17.1001 6 19.0001 6 21.0001C6 23.0001 6.4 24.9001 7.1 26.7001C7.9 28.5001 9 30.1001 10.3 31.5001C11.7 32.9001 13.3 34.0001 15.1 34.7001C17 35.6001 19 36.0001 21 36.0001C23 36.0001 25 35.6001 26.7 34.9001C28.5 34.1001 30.1 33.0001 31.5 31.7001C32.9 30.3001 34 28.7001 34.7 26.9001C35.6 24.9001 36 23.0001 36 21.0001C36 19.0001 35.6 17.1001 34.9 15.3001ZM32.6 15.1001L29.8 16.2001C29.5 15.6001 29.1 15.1001 28.7 14.6001L30.8 12.5001C31.5 13.3001 32.1 14.2001 32.6 15.1001ZM26.9 9.40006C27.8 9.90006 28.7 10.4001 29.5 11.1001L27.4 13.2001C26.9 12.8001 26.4 12.4001 25.8 12.1001L26.9 9.40006ZM22 8.10006C23.1 8.20006 24.1 8.40006 25 8.70006L23.8 11.5001C23.2 11.3001 22.6 11.2001 21.9 11.1001V8.10006H22ZM20 8.10006V11.1001C19.4 11.2001 18.7 11.3001 18.1 11.5001L17 8.60006C17.9 8.30006 18.9 8.10006 20 8.10006ZM15.1 9.40006L16.2 12.2001C15.6 12.5001 15.1 12.9001 14.6 13.3001L12.6 11.1001C13.3 10.5001 14.2 9.90006 15.1 9.40006ZM11.1 12.6001L13.2 14.7001C12.8 15.2001 12.4 15.7001 12.1 16.3001L9.3 15.2001C9.9 14.2001 10.5 13.3001 11.1 12.6001ZM8.6 17.0001L11.4 18.2001C11.2 18.8001 11.1 19.4001 11 20.1001H8C8.1 18.9001 8.3 17.9001 8.6 17.0001ZM8.1 22.0001H11.1C11.2 22.6001 11.3 23.3001 11.5 23.9001L8.6 25.0001C8.3 24.1001 8.1 23.1001 8.1 22.0001ZM9.4 26.9001L12.2 25.8001C12.5 26.4001 12.9 26.9001 13.3 27.4001L11.2 29.5001C10.5 28.7001 9.9 27.8001 9.4 26.9001ZM15.1 32.6001C14.2 32.1001 13.3 31.6001 12.5 30.9001L14.6 28.8001C15.1 29.2001 15.6 29.6001 16.2 29.9001L15.1 32.6001ZM20 33.9001C18.9 33.8001 17.9 33.6001 17 33.3001L18.2 30.5001C18.8 30.7001 19.4 30.8001 20.1 30.9001V33.9001H20ZM19 26.0001C19 25.3001 19.4 24.6001 20 24.3001V22.7001C19.7 22.5001 19.5 22.3001 19.3 22.0001H17.7C17.4 22.6001 16.7 23.0001 16 23.0001C14.9 23.0001 14 22.1001 14 21.0001C14 19.9001 14.9 19.0001 16 19.0001C16.7 19.0001 17.4 19.4001 17.7 20.0001H19.3C19.5 19.7001 19.7 19.5001 20 19.3001V17.7001C19.4 17.4001 19 16.7001 19 16.0001C19 14.9001 19.9 14.0001 21 14.0001C22.1 14.0001 23 14.9001 23 16.0001C23 16.7001 22.6 17.4001 22 17.7001V19.3001C22.3 19.5001 22.5 19.7001 22.7 20.0001H24.3C24.6 19.4001 25.3 19.0001 26 19.0001C27.1 19.0001 28 19.9001 28 21.0001C28 22.1001 27.1 23.0001 26 23.0001C25.3 23.0001 24.6 22.6001 24.3 22.0001H22.7C22.5 22.3001 22.3 22.5001 22 22.7001V24.3001C22.6 24.6001 23 25.3001 23 26.0001C23 27.1001 22.1 28.0001 21 28.0001C19.9 28.0001 19 27.1001 19 26.0001ZM22 33.9001V30.9001C22.6 30.8001 23.3 30.7001 23.9 30.5001L25.1 33.3001C24.1 33.7001 23.1 33.9001 22 33.9001ZM26.9 32.6001L25.8 29.8001C26.4 29.5001 26.9 29.1001 27.4 28.7001L29.5 30.8001C28.7 31.5001 27.8 32.1001 26.9 32.6001ZM30.9 29.4001L28.8 27.3001C29.2 26.8001 29.6 26.3001 29.9 25.7001L32.7 26.8001C32.1 27.8001 31.5 28.7001 30.9 29.4001ZM33.4 25.0001L30.6 23.8001C30.8 23.2001 30.9 22.6001 31 21.9001H34C33.9 23.1001 33.7 24.1001 33.4 25.0001ZM30.9 20.0001C30.8 19.4001 30.7 18.7001 30.5 18.1001L33.3 16.9001C33.6 17.9001 33.8 18.9001 33.9 19.9001H30.9V20.0001Z" fill="url(#paint1_linear_2073_1383)"/>
</g>
</g>
<defs>
<filter id="filter0_ii_2073_1383" x="0" y="0" width="42" height="42" filterUnits="userSpaceOnUse" color-interpolation-filters="sRGB">
<feFlood flood-opacity="0" result="BackgroundImageFix"/>
<feBlend mode="normal" in="SourceGraphic" in2="BackgroundImageFix" result="shape"/>
<feColorMatrix in="SourceAlpha" type="matrix" values="0 0 0 0 0 0 0 0 0 0 0 0 0 0 0 0 0 0 127 0" result="hardAlpha"/>
<feOffset dy="1"/>
<feComposite in2="hardAlpha" operator="arithmetic" k2="-1" k3="1"/>
<feColorMatrix type="matrix" values="0 0 0 0 0.144231 0 0 0 0 0.144231 0 0 0 0 0.144231 0 0 0 0.34 0"/>
<feBlend mode="normal" in2="shape" result="effect1_innerShadow_2073_1383"/>
<feColorMatrix in="SourceAlpha" type="matrix" values="0 0 0 0 0 0 0 0 0 0 0 0 0 0 0 0 0 0 127 0" result="hardAlpha"/>
<feOffset dy="-1"/>
<feComposite in2="hardAlpha" operator="arithmetic" k2="-1" k3="1"/>
<feColorMatrix type="matrix" values="0 0 0 0 0.139423 0 0 0 0 0.139423 0 0 0 0 0.139423 0 0 0 0.39 0"/>
<feBlend mode="normal" in2="effect1_innerShadow_2073_1383" result="effect2_innerShadow_2073_1383"/>
</filter>
<filter id="filter1_ii_2073_1383" x="6" y="6.00006" width="30" height="30" filterUnits="userSpaceOnUse" color-interpolation-filters="sRGB">
<feFlood flood-opacity="0" result="BackgroundImageFix"/>
<feBlend mode="normal" in="SourceGraphic" in2="BackgroundImageFix" result="shape"/>
<feColorMatrix in="SourceAlpha" type="matrix" values="0 0 0 0 0 0 0 0 0 0 0 0 0 0 0 0 0 0 127 0" result="hardAlpha"/>
<feOffset dy="1"/>
<feComposite in2="hardAlpha" operator="arithmetic" k2="-1" k3="1"/>
<feColorMatrix type="matrix" values="0 0 0 0 0.94902 0 0 0 0 0.309804 0 0 0 0 0.317647 0 0 0 1 0"/>
<feBlend mode="normal" in2="shape" result="effect1_innerShadow_2073_1383"/>
<feColorMatrix in="SourceAlpha" type="matrix" values="0 0 0 0 0 0 0 0 0 0 0 0 0 0 0 0 0 0 127 0" result="hardAlpha"/>
<feOffset dy="-1"/>
<feComposite in2="hardAlpha" operator="arithmetic" k2="-1" k3="1"/>
<feColorMatrix type="matrix" values="0 0 0 0 1 0 0 0 0 0.456731 0 0 0 0 0.463397 0 0 0 1 0"/>
<feBlend mode="normal" in2="effect1_innerShadow_2073_1383" result="effect2_innerShadow_2073_1383"/>
</filter>
<linearGradient id="paint0_linear_2073_1383" x1="21" y1="42" x2="21" y2="0" gradientUnits="userSpaceOnUse">
<stop stop-color="#161616"/>
<stop offset="1" stop-color="#0D0D0D"/>
</linearGradient>
<linearGradient id="paint1_linear_2073_1383" x1="21" y1="6.00006" x2="21" y2="36.0001" gradientUnits="userSpaceOnUse">
<stop stop-color="#AC2E30"/>
<stop offset="1" stop-color="#F75154"/>
</linearGradient>
</defs>
</svg>
