<svg width="70" height="48" viewBox="0 0 70 48" fill="none" xmlns="http://www.w3.org/2000/svg">
<rect width="70" height="48" rx="6" fill="#333232"/>
<rect width="70" height="48" rx="6" fill="url(#paint0_linear_2073_1298)"/>
<path d="M57.6289 35.8551H57.6914L58.8828 32.1139H60L58.1094 37.1979C57.587 38.6009 56.9494 39.3326 55.749 39.3326V38.4996C56.4591 38.4995 56.8974 37.9498 57.1484 37.1979L55.1426 32.1139H56.292L57.6289 35.8551ZM22.1885 31.941C23.4938 31.941 24.2978 32.7647 24.2979 34.4215V34.7975H20.8936C20.8936 36.0172 21.4049 36.5561 22.4805 36.5563C23.0445 36.5563 23.5671 36.3635 24.1416 36.028V36.8004C23.6717 37.0651 23.0451 37.2691 22.293 37.2692C20.5385 37.2692 19.8175 36.2115 19.8174 34.6051C19.8174 33.0599 20.6217 31.941 22.1885 31.941ZM26.335 32.317C26.6483 32.1543 27.1812 31.941 27.7451 31.941C29.0398 31.9412 29.7393 32.816 29.7393 34.443C29.7391 36.3436 28.7997 37.2692 27.2852 37.2692C26.7313 37.2692 25.8748 37.096 25.248 36.7701V29.6735L26.335 29.4196V32.317ZM41.6055 31.941C42.9843 31.941 43.9873 32.8258 43.9873 34.6051C43.9871 36.3437 43.0365 37.2692 41.6055 37.2692C40.1746 37.269 39.2248 36.3435 39.2246 34.6051C39.2246 32.8259 40.2269 31.9412 41.6055 31.941ZM52.709 31.941C54.0148 31.9411 54.8193 32.7647 54.8193 34.4215V34.7975H51.4141C51.4141 36.0174 51.9262 36.5563 53.002 36.5563C53.5658 36.5562 54.0883 36.3634 54.6621 36.028V36.8004C54.1924 37.0651 53.5657 37.2691 52.8135 37.2692C51.0592 37.2692 50.338 36.2115 50.3379 34.6051C50.3379 33.0599 51.1424 31.941 52.709 31.941ZM13.3398 35.317H13.4131L14.7705 29.9381H15.7002L17.1523 35.317H17.2256L18.291 29.9381H19.5127L17.8203 37.1471H16.6924L15.2725 32.0729H15.1992L13.8203 37.1471H12.6924L11 29.9381H12.1699L13.3398 35.317ZM34.4922 35.6217H34.5449L36.7793 29.9381H38.0752V37.1471H36.9473V31.9205H36.8525L34.7217 37.1471H34.0537L31.9229 32.0426H31.8291V37.1471H30.8887V29.9381H32.1523L34.4922 35.6217ZM47.6426 31.941C48.8964 31.941 49.3661 32.4186 49.3662 33.4655V37.1471H48.2803V33.6998C48.2802 32.8969 47.8732 32.7546 47.3408 32.7545C46.9228 32.7545 46.3891 32.938 46.0654 33.1207V37.1471H44.9795V32.693C45.4495 32.4184 46.4422 31.941 47.6426 31.941ZM27.4629 32.734C27.0448 32.734 26.7421 32.8463 26.3242 33.0699V36.3942C26.6582 36.5366 27.0239 36.5572 27.2852 36.5573C28.058 36.5573 28.6435 36.0893 28.6436 34.443C28.6436 33.1514 28.1626 32.734 27.4629 32.734ZM41.6055 32.653C40.9161 32.6531 40.3213 33.2329 40.3213 34.6051C40.3214 35.998 40.8643 36.5562 41.6055 36.5563C42.3469 36.5563 42.8905 35.9982 42.8906 34.6051C42.8906 33.2327 42.3156 32.653 41.6055 32.653ZM22.1572 32.6227C21.5197 32.6227 21.0286 33.1003 20.9141 34.1168H23.3057C23.2539 33.0491 22.7212 32.6227 22.1572 32.6227ZM52.6777 32.6227C52.0404 32.6227 51.5497 33.1003 51.4346 34.1168H53.8262C53.7743 33.0492 53.2417 32.6228 52.6777 32.6227Z" fill="#333232"/>
<path d="M34.7993 8.62671C36.2368 8.62671 37.5986 8.95253 38.811 9.53101C39.0013 9.61885 39.1911 9.71534 39.3813 9.82202L38.5386 10.5564L37.2729 9.28198L35.1353 11.1375L33.8667 9.78882L29.8853 13.282L32.438 16.0203L31.4351 16.8787L33.9487 19.6199L32.9517 20.4773L36.5435 24.3689L38.6753 22.4578L40.519 24.5056C40.1524 24.7831 39.753 25.0446 39.313 25.2859C37.98 26.0258 36.4388 26.449 34.7993 26.449C29.7573 26.4488 25.645 22.4452 25.645 17.5378C25.6452 12.6296 29.7574 8.6269 34.7993 8.62671ZM43.0083 22.2517L41.3755 23.6824L39.9058 22.0935L41.5376 20.6619L43.0083 22.2517ZM38.8169 20.8474L36.6401 22.7556L34.6792 20.6365L36.856 18.7283L38.8169 20.8474ZM41.5728 19.0417L39.9399 20.4724L38.4692 18.8835L40.103 17.4519L41.5728 19.0417ZM37.2681 17.1863L35.0913 19.0935L33.1313 16.9744L35.3081 15.0662L37.2681 17.1863ZM44.0229 17.99L42.9351 18.9431L41.9546 17.8845L43.0435 16.9304L44.0229 17.99ZM40.1763 15.6833L38.5435 17.114L37.0737 15.5251L38.7056 14.0935L40.1763 15.6833ZM42.6313 14.8416L41.5435 15.7957L40.563 14.7361L41.6519 13.782L42.6313 14.8416ZM35.7104 13.5671L33.5337 15.4753L31.5737 13.3562L33.7505 11.448L35.7104 13.5671ZM38.6714 12.488L37.0386 13.9187L35.5688 12.3289L37.2017 10.8982L38.6714 12.488ZM41.2407 11.6941L40.1528 12.6472L39.1724 11.5886L40.2612 10.6345L41.2407 11.6941Z" fill="#333232"/>
<defs>
<linearGradient id="paint0_linear_2073_1298" x1="35" y1="48" x2="35" y2="0" gradientUnits="userSpaceOnUse">
<stop stop-color="#161616"/>
<stop offset="1" stop-color="#0D0D0D"/>
</linearGradient>
</defs>
</svg>
