<svg width="22" height="24" viewBox="0 0 22 24" fill="none" xmlns="http://www.w3.org/2000/svg">
<path opacity="0.1" d="M11.0459 1.01074L20.9873 6.50488C20.9943 6.5088 20.9981 6.51245 21 6.51465V17.4844C20.9983 17.4865 20.995 17.4908 20.9873 17.4951L11.0459 22.9893C11.0344 22.9956 11.0184 23 11 23C10.9816 23 10.9656 22.9956 10.9541 22.9893L1.0127 17.4951C1.00503 17.4908 1.00174 17.4865 1 17.4844V6.51465C1.00195 6.51245 1.00569 6.5088 1.0127 6.50488L10.9541 1.01074C10.9656 1.0044 10.9816 1 11 1C11.0184 1 11.0344 1.0044 11.0459 1.01074Z" stroke="#F34950" stroke-width="2"/>
</svg>
