<svg width="36" height="36" viewBox="0 0 36 36" fill="none" xmlns="http://www.w3.org/2000/svg">
<g clip-path="url(#clip0_2044_2288)">
<g opacity="0.5">
<path d="M16.1765 8.86212C15.9146 7.73636 15.6928 6.78283 15.4521 6.03418L26.625 9.27516C26.6988 9.29659 26.8908 9.38134 27.1562 10.0772C27.4158 10.7573 27.6504 11.7572 27.9879 13.2078L28.1899 14.0766C28.2347 14.2699 28.2773 14.4542 28.3227 14.629L18.1968 11.8245L17.6855 11.5333C16.9621 11.1213 16.8292 11.0255 16.7356 10.8949C16.6313 10.7495 16.5685 10.5472 16.3633 9.66563L16.1765 8.86212Z" fill="url(#paint0_linear_2044_2288)"/>
<path d="M21.9452 14.6104L30.3795 16.9463L30.8908 17.2375C32.0809 17.9155 32.8829 18.3751 33.4056 18.794C33.906 19.1948 33.992 19.4342 33.9994 19.6379C34.0073 19.8524 33.929 20.1215 33.4482 20.6039C32.9532 21.1002 32.1826 21.6756 31.0506 22.5167L30.3786 23.0159C30.061 23.2514 29.7733 23.4644 29.5314 23.7029L18.0706 20.3783L18.6745 19.9295C19.7366 19.1404 20.6104 18.4913 21.2045 17.8956C21.8229 17.2753 22.2792 16.5761 22.2462 15.6786C22.2314 15.2757 22.1215 14.924 21.9452 14.6104Z" fill="url(#paint1_linear_2044_2288)"/>
<path d="M16.9459 21.8057L28.7564 25.2316C28.7074 25.4698 28.6683 25.7256 28.6259 26.0022L28.4895 26.8891C28.3596 27.7326 28.1679 28.4838 27.9642 29.1202C27.6054 30.2416 27.5136 30.3974 27.244 30.5522C27.1281 30.6187 27.0191 30.6479 26.7907 30.6221C26.5111 30.5906 26.1527 30.4897 25.5413 30.3124L15.7817 27.4813C15.899 27.2344 15.9918 26.9703 16.0703 26.7013C16.3148 25.8644 16.4908 24.7216 16.7077 23.3124L16.8344 22.4901C16.8794 22.1978 16.9149 21.9768 16.9459 21.8057Z" fill="url(#paint2_linear_2044_2288)"/>
</g>
<path d="M10.2616 8.01703C11.2259 6.94126 11.8861 6.208 12.4188 5.76457C12.9583 5.31551 13.1345 5.36171 13.1891 5.37754C13.263 5.39897 13.4549 5.48374 13.7204 6.17962C13.9799 6.85969 14.2145 7.85964 14.552 9.31015L14.7541 10.179C14.911 10.8577 15.0416 11.4215 15.367 11.8758C15.7025 12.344 16.1896 12.6204 16.7449 12.9356L16.8525 12.9968L17.4549 13.3399C18.645 14.0177 19.4471 14.4775 19.9697 14.8962C20.4699 15.2972 20.556 15.5365 20.5636 15.7403C20.5715 15.9547 20.4932 16.2239 20.0123 16.7063C19.5173 17.2026 18.7466 17.778 17.6148 18.6191L16.9428 19.1183C16.4078 19.5146 15.9583 19.8477 15.6684 20.3449C15.3848 20.831 15.2977 21.4001 15.1899 22.1048L15.0535 22.9914C14.8241 24.4808 14.6635 25.5121 14.454 26.2291C14.3361 26.6326 14.224 26.8578 14.1293 26.9863C13.9468 26.9184 13.7037 26.8194 13.4168 26.682C12.7344 26.3552 11.8098 25.8135 10.8629 24.9618L10.3366 24.4884L10.3134 24.4677C10.0442 24.2253 9.80475 24.01 9.588 23.8457C9.35359 23.668 9.10071 23.514 8.79125 23.4243C8.24412 23.2656 7.6808 23.3712 7.07339 23.4852L6.94222 23.5098L6.26772 23.635C4.93259 23.8825 4.03768 24.0457 3.39571 24.0577C2.7792 24.0692 2.6496 23.9363 2.58027 23.8396C2.48341 23.7044 2.39307 23.4424 2.54351 22.7047C2.69327 21.9702 3.03029 20.9908 3.51947 19.5769L3.8094 18.7393C4.04309 18.066 4.22997 17.5275 4.20912 16.9591C4.18813 16.3868 3.95983 15.8709 3.67801 15.2339L3.32827 14.4416C2.73763 13.1032 2.33245 12.1803 2.13078 11.4745C1.93116 10.776 1.99324 10.493 2.09364 10.3209C2.17696 10.1781 2.32785 10.026 2.93564 9.95096C3.57522 9.87197 4.47662 9.90751 5.82281 9.96479L6.50296 9.99373L6.63132 9.99935C7.24917 10.0268 7.81487 10.052 8.34003 9.81996C8.85089 9.59422 9.23717 9.16186 9.68037 8.66577L9.77268 8.56256L10.2616 8.01703Z" fill="url(#paint3_linear_2044_2288)"/>
</g>
<defs>
<linearGradient id="paint0_linear_2044_2288" x1="21.8874" y1="6.03418" x2="21.8874" y2="14.629" gradientUnits="userSpaceOnUse">
<stop stop-color="#AC2E30"/>
<stop offset="1" stop-color="#F75154"/>
</linearGradient>
<linearGradient id="paint1_linear_2044_2288" x1="26.0353" y1="14.6104" x2="26.0353" y2="23.7029" gradientUnits="userSpaceOnUse">
<stop stop-color="#AC2E30"/>
<stop offset="1" stop-color="#F75154"/>
</linearGradient>
<linearGradient id="paint2_linear_2044_2288" x1="22.2691" y1="21.8057" x2="22.2691" y2="30.6314" gradientUnits="userSpaceOnUse">
<stop stop-color="#AC2E30"/>
<stop offset="1" stop-color="#F75154"/>
</linearGradient>
<linearGradient id="paint3_linear_2044_2288" x1="11.2818" y1="5.36816" x2="11.2818" y2="26.9863" gradientUnits="userSpaceOnUse">
<stop stop-color="#AC2E30"/>
<stop offset="1" stop-color="#F75154"/>
</linearGradient>
<clipPath id="clip0_2044_2288">
<rect width="36" height="36" fill="white"/>
</clipPath>
</defs>
</svg>
