<svg width="68" height="65" viewBox="0 0 68 65" fill="none" xmlns="http://www.w3.org/2000/svg">
<g clip-path="url(#clip0_2044_2174)">
<path d="M48.3857 13.2826C57.618 22.5148 61.0296 26.0234 60.9649 26.2175C60.8679 26.4438 59.8816 26.4762 50.908 26.4762C42.5811 26.4762 40.8834 26.4438 40.5115 26.2498C40.269 26.1205 38.7007 24.6329 37.003 22.9352C35.0951 21.0112 33.8177 19.847 33.6075 19.847C33.2195 19.847 23.9872 29.0146 23.9872 29.4027C23.9872 29.5482 24.1004 29.7261 24.2459 29.7746C24.3914 29.8231 33.6075 29.8716 44.7316 29.8716H64.9585L66.1388 31.0519C67.1413 32.0705 67.3192 32.313 67.3192 32.7981C67.3192 33.3155 66.3167 34.3503 51.5062 49.1446C36.34 64.3108 35.6771 64.9575 35.1274 64.9575C34.7878 64.9575 34.3675 64.8282 34.1573 64.6503L33.7692 64.3431L33.6884 58.7649L33.6075 53.1868L33.2195 52.7664L32.8476 52.3622L26.0245 52.3136C19.3306 52.2651 19.2013 52.2651 18.6516 51.9094C18.3443 51.7154 15.434 48.9021 12.2003 45.6683C7.91558 41.3675 6.34722 39.7021 6.39572 39.4757C6.44423 39.1847 6.7676 39.1685 16.582 39.1685H26.7197L30.0181 42.4346C32.023 44.4395 33.4297 45.7168 33.6075 45.7168C33.9956 45.7168 43.2279 36.5331 43.2279 36.1612C43.2279 36.0157 43.1147 35.8378 42.9692 35.7893C42.8237 35.7408 33.6237 35.6923 22.4997 35.6923H2.30506L1.31877 34.7545C0.0899554 33.5904 -0.20108 32.9921 0.122293 32.2484C0.364823 31.6986 18.118 13.897 18.8132 13.5251C19.1366 13.3472 20.6565 13.2826 26.0083 13.2502L32.7991 13.2179L33.2033 12.8137L33.6075 12.4095L33.6884 6.8151L33.7692 1.22075L34.1573 0.913551C34.3675 0.735695 34.7878 0.606339 35.1274 0.606339C35.6933 0.606339 36.2269 1.12374 48.3857 13.2826Z" fill="#F75154"/>
</g>
<defs>
<clipPath id="clip0_2044_2174">
<rect width="67.3019" height="64.9979" fill="white"/>
</clipPath>
</defs>
</svg>
